<?xml version="1.0" standalone="no"?> <!DOCTYPE svg PUBLIC "-//W3C//DTD SVG 1.0//EN" "http://www.w3.org/TR/2001/REC-SVG-20010904/DTD/svg10.dtd" > <svg xmlns="http://www.w3.org/2000/svg" width="100%" height="100%">
<defs >
<font id="bellmtstd-italic" horiz-adv-x="483" ><font-face
    font-family="Bell MT Std"
    units-per-em="1000"
    panose-1="2 2 5 3 7 4 1 9 3 3"
    ascent="666"
    descent="-334"
    alphabetic="0" />
<missing-glyph horiz-adv-x="641" d="M141 0V700H641V0H141ZM391 395L561 650H221L391 395ZM421 350L591 95V605L421 350ZM221 50H561L391 305L221 50ZM191 605V95L361 350L191 605Z" />
<glyph unicode=" " glyph-name="space" horiz-adv-x="245" />
<glyph unicode="!" glyph-name="exclam" horiz-adv-x="302" d="M192 169Q183 144 177 144Q169 144 169 152L174 173Q211 303 231 519Q234 549 236 566T245 603T262 630T290 639Q312 639 322 625T333 599Q333 570 289 448L192 169ZM137 74T154 74T184 62T197 31Q197
14 184 2T154 -11T125 1T112 31Q112 47 124 60Z" />
<glyph unicode="&quot;" glyph-name="quotedbl" horiz-adv-x="417" d="M364 367L379 512Q382 547 385 565T396 607T418 641T455 652Q493 652 493 617Q493 597 453 511L385 367H364ZM182 367L197 512Q200 547 203 565T214 607T236 641T273 652Q311 652 311 617Q311
597 271 511L203 367H182Z" />
<glyph unicode="#" glyph-name="numbersign" horiz-adv-x="667" d="M116 464H280L323 667H365L322 464H545L587 667H630L587 464H691V421H578L537 222H691V179H528L487 -23H443L486 179H262L221 -23H178L220 179H116V222H229L271 421H116V464ZM536 421H313L271
223H495L536 421Z" />
<glyph unicode="$" glyph-name="dollar" horiz-adv-x="490" d="M373 528L394 588H419L402 528Q449 518 478 493T507 427Q507 410 497 396T468 382Q451 382 441 393T430 421Q430 443 448 451Q456 455 460 457T466 460T467 464Q467 478 441 493Q424 502 394 508L335
313Q381 265 399 244T430 195T443 134Q443 73 403 33T316 -18Q282 -26 232 -23L194 -144H165L204 -18Q151 -9 118 27T85 100Q85 128 100 142T131 157Q148 157 158 144T169 114Q169 95 153 81Q134 65 134 61Q134 46 155 28T211 2L288 254Q260 283 247 298T221 341T207
399Q207 466 261 499T373 528ZM314 335L367 510Q329 510 305 499T271 471T260 445T258 429Q258 386 314 335ZM311 232L239 -3Q247 -5 267 -5Q315 -5 348 27T381 101Q381 162 311 232Z" />
<glyph unicode="%" glyph-name="percent" horiz-adv-x="740" d="M488 88Q488 75 490 60T509 26T552 7Q583 7 608 29T649 86T673 156T681 223Q681 252 665 275T620 299Q564 299 526 232T488 88ZM753 653L148 -13H111L717 653H753ZM432 121Q432 205 487 262T611
319Q662 319 699 283T737 183Q737 96 681 42T556 -13Q523 -13 498 0T459 35T439 78T432 121ZM181 422Q181 416 182 407T189 380T210 352T248 340Q299 340 336 410T373 552Q373 569 369 585T350 616T309 632Q275 632 249 607T209 545T188 476T181 422ZM125 452Q125
543 180 597T304 652Q363 652 396 611T429 513Q429 433 373 377T252 320Q198 320 162 356T125 452Z" />
<glyph unicode="&amp;" glyph-name="ampersand" horiz-adv-x="813" d="M435 537Q430 552 425 562T409 586T380 607T338 615Q286 615 261 581T236 503Q236 472 261 431Q356 429 356 369Q356 356 344 349T317 341Q292 341 275 361Q255 385 249 390T234 396Q210 396
185 362T159 283Q159 197 234 134T454 70Q520 70 571 84T650 118T697 166T720 215T726 260Q726 320 684 369T569 419Q522 419 486 392T450 324Q450 292 467 267T510 242Q537 242 537 252Q537 257 521 270Q510 280 510 293Q510 312 525 321T554 331Q561 331 571
328T593 312T605 279Q605 248 581 230T527 212Q483 212 456 248T428 325Q428 333 429 344T441 377T467 416T518 447T599 461Q608 461 658 459T716 457Q768 457 809 484T850 552Q850 588 824 614T769 640Q752 640 752 633Q752 631 754 625T757 617Q760 609 760 600Q760
583 746 572T716 561T687 573T673 606Q673 631 692 648T744 665Q798 665 838 631T878 533Q878 442 788 402Q761 390 699 385Q749 323 749 244Q749 138 664 65T435 -9Q287 -9 198 67T108 248Q108 368 242 427Q207 481 207 528Q207 579 240 621T332 663Q380 663 410
634T441 565Q441 552 435 537Z" />
<glyph unicode="&apos;" glyph-name="quotesingle" horiz-adv-x="219" d="M182 367L197 512Q200 547 203 565T214 607T236 641T273 652Q311 652 311 617Q311 597 271 511L203 367H182Z" />
<glyph unicode="(" glyph-name="parenleft" horiz-adv-x="313" d="M252 -254L258 -262Q258 -266 249 -266Q219 -266 213 -257Q189 -219 163 -130T136 55Q136 239 209 390T415 647Q431 660 440 663T475 666Q488 666 488 662Q488 659 462 643Q320 524 255 394Q173
233 173 61Q173 -13 188 -82T216 -180T252 -254Z" />
<glyph unicode=")" glyph-name="parenright" horiz-adv-x="240" d="M146 654L140 662Q140 666 149 666Q179 666 185 657Q209 619 235 530T262 345Q262 161 189 10T-17 -247Q-33 -260 -42 -263T-77 -266Q-90 -266 -90 -262L-65 -243Q76 -124 143 6Q225 167 225
339Q225 413 210 482T182 580T146 654Z" />
<glyph unicode="*" glyph-name="asterisk" horiz-adv-x="500" d="M443 476L539 489Q584 489 584 460Q584 450 577 443T556 436Q542 436 491 443T419 455L410 457Q402 457 402 452L449 417Q505 375 520 361T535 331Q535 322 527 316T509 309Q492 309 474 329T402
425Q394 437 393 437Q388 437 388 429Q388 424 390 413T392 399Q402 309 402 282Q402 251 377 251Q349 251 349 287Q349 321 369 418Q369 419 370 424T372 430Q372 436 368 436Q367 436 342 403T314 365Q266 302 248 302Q239 302 232 309T225 326Q225 338 232 346T273
383Q296 402 348 439Q352 439 352 444Q352 448 348 448Q347 448 343 447T338 446Q226 426 203 426Q189 426 178 433T166 454Q166 470 178 475T199 481Q222 481 338 462Q342 460 347 460Q354 460 354 464Q354 465 345 472T335 479Q248 541 230 557T212 587Q212 597
219 604T237 611Q246 611 255 604T291 568Q294 565 328 523T366 481Q370 481 370 486Q370 489 368 497T365 508Q344 600 344 631Q344 648 351 658T369 669Q373 669 378 668T390 657T398 630Q398 617 391 554T384 488Q384 482 388 482Q391 482 402 499Q475 611 510
611Q517 611 524 605T532 589Q532 578 525 571T476 532Q469 526 442 508T405 480Q401 476 401 475Q401 469 409 469Q411 469 418 470T433 474T443 476Z" />
<glyph unicode="+" glyph-name="plus" horiz-adv-x="667" d="M141 311H382V552H425V311H666V268H425V27H382V268H141V311Z" />
<glyph unicode="," glyph-name="comma" horiz-adv-x="188" d="M122 -13Q84 -13 70 3T55 40Q55 65 72 77T108 90Q138 90 156 65T175 3Q175 -36 157 -70T115 -122T72 -151T46 -162Q36 -162 36 -152Q36 -147 55 -137Q125 -97 125 -38Q125 -37 122 -13Z" />
<glyph unicode="-" glyph-name="hyphen" horiz-adv-x="385" d="M108 236L386 235Q399 235 399 228Q399 223 397 221L387 189Q384 178 382 176T369 173L95 174Q79 174 79 180Q79 182 82 193L92 225Q97 236 108 236Z" />
<glyph unicode="." glyph-name="period" horiz-adv-x="219" d="M113 86T133 86T167 72T181 38T167 4T133 -10T99 4T85 38T99 72Z" />
<glyph unicode="/" glyph-name="slash" horiz-adv-x="500" d="M461 660H503L159 -18H117L461 660Z" />
<glyph unicode="0" glyph-name="zero" horiz-adv-x="490" d="M86 198Q86 324 165 426T361 529Q407 529 442 509T497 456T525 390T534 325Q534 271 516 214T465 105T376 21T255 -12Q209 -12 175 7T125 52T99 111T88 163T86 198ZM157 131Q157 117 160 101T171 62T202
23T256 8Q320 8 364 74Q404 134 433 217T463 389Q463 436 440 472T364 509Q315 509 274 468T208 367T170 244T157 131Z" />
<glyph unicode="1" glyph-name="one" horiz-adv-x="490" d="M280 57Q280 37 296 27T332 16Q341 16 344 16T350 13T353 7Q353 -2 339 -2Q329 -2 277 0Q262 0 241 0T217 1Q215 1 201 1T177 0Q141 -2 136 -2Q121 -2 121 7Q121 13 125 14T145 17Q146 17 147 17Q197
19 219 96Q221 103 304 373Q321 426 321 444Q321 459 307 472T258 485Q240 485 240 494Q240 501 248 503T295 507Q360 511 392 524Q412 534 414 534Q421 534 421 525Q421 519 351 292T280 57Z" />
<glyph unicode="2" glyph-name="two" horiz-adv-x="490" d="M86 -2L57 -3Q40 -3 40 4T66 22Q88 36 131 64T249 151T362 252Q443 341 443 416Q443 457 418 482T346 508Q273 508 223 446T172 331Q172 312 187 298T219 284Q242 284 264 298T298 330Q312 353 320 353Q329
353 329 345Q329 329 290 294T200 258Q161 258 142 282T123 339Q123 406 197 468T373 530Q450 530 486 493T522 410Q522 300 376 199Q329 166 162 66V64Q360 64 373 68Q389 72 407 87T433 115Q443 130 447 134T457 139Q467 139 467 130Q467 126 450 101Q448 97
433 72T404 27T387 0Q359 -1 229 -1T86 -2Z" />
<glyph unicode="3" glyph-name="three" horiz-adv-x="490" d="M329 285V283Q370 283 391 273Q417 261 432 234T448 176Q448 149 436 118T399 57T329 7T225 -13Q178 -13 144 0T94 33T71 71T64 105Q64 123 75 137T105 152Q123 152 133 141T143 117Q143 110 134 89Q130
79 130 68Q130 41 155 24T215 7Q263 7 301 43T357 122T375 198Q375 226 358 246T314 267Q293 267 263 251Q239 239 236 239Q227 239 227 249Q227 258 253 268Q334 308 354 320T391 353Q420 386 420 429Q420 467 398 487T340 508Q293 508 260 475T227 397Q227 376
236 366T258 356Q271 356 279 360T309 384Q315 387 318 387Q326 387 326 380Q326 364 293 344T235 323Q207 323 190 343T172 388Q172 444 223 486T354 528Q415 528 452 497T490 421Q490 393 480 373T443 336T395 310T329 285Z" />
<glyph unicode="4" glyph-name="four" horiz-adv-x="490" d="M384 224L453 223Q482 222 498 243T517 282Q519 295 527 295Q538 295 538 285Q538 281 495 143Q485 110 477 110Q468 110 468 121Q468 124 470 137T473 152Q473 194 436 202Q427 204 378 204Q375 193
359 142T343 89Q340 77 340 65Q340 46 354 33T384 19Q416 18 416 8Q416 -1 397 -1Q389 -1 350 1T305 4Q297 4 256 2T211 0Q183 0 183 9T216 20Q252 22 270 66Q270 67 288 130T312 204H67Q68 214 74 225Q90 238 163 303T245 375L418 515Q434 528 441 531T463 534Q476
534 476 526T384 224ZM174 287L103 224H318L353 338Q388 451 394 466L392 468Q378 458 368 451T343 432T308 403T254 358T174 287Z" />
<glyph unicode="5" glyph-name="five" horiz-adv-x="490" d="M290 529Q293 528 311 525T339 519Q369 514 396 514Q471 514 512 560Q529 579 533 579Q535 579 539 576T543 569Q543 551 505 510Q458 458 349 458Q315 458 285 463Q280 452 257 395Q243 360 234 339T223
315L225 313Q279 350 327 350Q392 350 432 309T473 203Q473 155 447 108T365 25T236 -10Q155 -10 114 29T73 110Q73 117 74 124T86 143T116 155Q152 155 152 120Q152 116 146 95T139 70Q139 52 159 31T219 10Q274 10 318 54T381 152T401 246Q401 288 375 309T320
330Q293 330 265 313T223 277Q192 233 189 230Q185 228 183 228Q173 228 173 238Q173 241 229 379T290 529Z" />
<glyph unicode="6" glyph-name="six" horiz-adv-x="490" d="M197 275L199 273Q259 333 336 333Q408 333 451 289T495 180Q495 104 433 47T285 -11Q202 -11 154 46T105 192Q105 242 124 298T180 408T279 495T417 530Q483 530 519 501T556 433Q556 383 515 383Q499
383 489 392T478 415Q478 419 485 438T492 461Q492 484 469 497T420 510Q337 510 267 419Q235 377 197 275ZM173 141Q173 85 205 47T285 9Q321 9 348 29T389 79T410 138T417 192Q417 238 391 272T315 307Q260 307 217 263T173 141Z" />
<glyph unicode="7" glyph-name="seven" horiz-adv-x="490" d="M272 50L259 7Q247 -19 221 -19Q208 -19 198 -10T187 13Q187 49 209 97T281 213T365 325T468 452Q219 452 210 450Q185 441 165 418Q153 405 147 405Q138 405 138 412Q138 415 157 449T180 490Q202
542 216 561Q219 565 223 565Q231 565 231 556Q231 534 241 526T282 517H412Q531 517 542 516Q540 501 513 471Q406 352 362 276T272 50Z" />
<glyph unicode="8" glyph-name="eight" horiz-adv-x="490" d="M370 277Q457 225 457 152Q457 87 399 38T238 -12Q190 -12 157 2T110 38T90 76T85 108Q85 135 97 158T126 196T169 225T212 246T254 261Q233 277 221 288T194 326T179 380Q179 436 234 482T369 529Q433
529 474 497T515 417Q515 385 499 359T457 317T411 292T370 277ZM348 289Q364 295 371 298T401 314T435 339T459 373T470 420Q470 463 439 486T365 509Q309 509 272 479T234 407Q234 367 277 337Q282 332 313 312T348 289ZM274 248Q207 224 171 186T135 102Q135
58 167 33T248 8Q306 8 348 43T391 124Q391 162 362 189T274 248Z" />
<glyph unicode="9" glyph-name="nine" horiz-adv-x="490" d="M413 242L411 244Q347 187 277 187Q197 187 157 231T116 336Q116 418 180 473T323 529Q406 529 455 474T505 325Q505 285 494 240T457 148T395 65T306 5T192 -19Q122 -19 88 9T53 77Q53 104 65 115T94
127T119 117T129 95Q129 91 122 73T115 51Q115 35 125 24T150 9T175 3T193 1Q211 1 231 7T277 30T326 73T373 143T413 242ZM195 321Q195 267 227 240T294 213Q349 213 393 256T437 373Q437 434 406 471T325 509Q265 509 230 452T195 321Z" />
<glyph unicode=":" glyph-name="colon" horiz-adv-x="177" d="M153 364T173 364T207 350T221 316T207 282T173 268Q152 268 139 282T125 316T139 350ZM86 90T106 90T140 76T154 42T140 8T106 -6Q85 -6 72 8T58 42T72 76Z" />
<glyph unicode=";" glyph-name="semicolon" horiz-adv-x="188" d="M121 -14Q56 -7 56 40Q56 60 69 74T107 89Q138 89 156 63T174 6Q174 -63 125 -111T48 -160Q38 -160 38 -152Q38 -147 65 -131Q86 -119 105 -94T125 -39Q125 -34 121 -14ZM154 370T174 370T208
356T222 322T208 288T174 274Q153 274 140 288T126 322T140 356Z" />
<glyph unicode="&lt;" glyph-name="less" horiz-adv-x="667" d="M665 49L142 272V310L665 531V484L199 291L665 97V49Z" />
<glyph unicode="=" glyph-name="equal" horiz-adv-x="667" d="M141 427H666V384H141V427ZM141 200H666V157H141V200Z" />
<glyph unicode="&gt;" glyph-name="greater" horiz-adv-x="667" d="M142 531L665 309V270L142 49V96L608 290L142 484V531Z" />
<glyph unicode="?" glyph-name="question" horiz-adv-x="396" d="M327 669Q370 669 400 656T446 622T467 579T473 536Q473 500 460 470T431 418T381 374T325 339T260 306Q209 280 189 264T168 222Q168 195 188 178T239 161Q263 161 292 172Q310 181 316 181Q319
181 322 179T325 174Q325 163 299 152T237 141Q196 141 169 167T142 230Q142 257 152 279T188 324T233 359T296 398Q331 419 355 437T402 488T426 556Q426 607 397 628T326 649Q284 649 256 629T227 585Q227 576 230 572T251 554Q264 544 264 525Q264 510 254 500T227
489Q207 489 192 505T177 549Q177 593 219 631T327 669ZM188 74T206 74T236 62T248 31Q248 14 236 2T206 -11Q188 -11 176 1T163 31Q163 49 175 61Z" />
<glyph unicode="@" glyph-name="at" horiz-adv-x="917" d="M728 468L671 273Q625 116 625 88Q625 76 633 63T662 50Q734 50 801 145T868 368Q868 498 781 583T552 669Q458 669 378 629T245 522T163 373T133 204Q133 30 241 -78T516 -186Q592 -186 661 -163T798
-76T908 84H936Q905 -13 837 -82T685 -184T513 -216Q331 -216 209 -94T87 217Q87 421 223 558T549 695Q635 695 703 667T813 591T876 484T898 360Q898 281 869 204T776 71T629 15Q554 15 554 83Q554 112 563 152L561 154Q450 15 370 15Q328 15 305 51T282 129Q282
202 325 283T432 418T551 471Q619 471 634 403H636L651 457L728 468ZM556 448Q512 448 464 389T388 259T359 144Q359 116 374 95T415 74Q484 74 564 195Q584 227 600 284T617 376Q617 407 601 427T556 448Z" />
<glyph unicode="A" glyph-name="A" horiz-adv-x="635" d="M500 3L372 2Q344 2 338 3T331 11Q331 21 344 21Q372 24 385 29T415 61T443 126T479 249H335L309 250Q293 251 280 241T243 201Q150 85 150 50Q150 25 192 21Q213 19 219 17T225 10Q225 2 211 2Q181 2
114 3L10 4Q-1 4 -1 10Q-1 18 14 21Q36 25 56 36T96 65T128 97T160 135L481 516Q572 625 578 630Q609 639 671 651Q665 626 598 372T530 107Q529 98 529 83Q529 54 545 39T584 19Q598 17 600 16T603 10Q603 0 589 0Q582 0 544 1T500 3ZM332 274L486 273Q491 287
527 415T564 551Q564 560 557 560Q546 560 516 525L330 303Q319 290 319 284Q319 274 332 274Z" />
<glyph unicode="B" glyph-name="B" horiz-adv-x="625" d="M379 631Q400 631 431 632T485 633Q540 633 579 618T636 580T661 536T668 495Q668 454 651 424T601 377T541 351T477 335V333Q504 325 519 320T561 301T602 272T628 231T640 174Q640 128 612 85T543 24Q479
-5 359 -5Q328 -5 275 -2Q240 0 193 0Q181 0 105 -3T25 -6Q10 -6 10 4Q10 8 13 9T31 13Q61 18 71 19T99 30T121 47T137 80T156 130T177 208Q238 430 251 485T265 577Q265 598 240 610T190 624Q173 626 173 634Q173 641 192 641Q202 641 230 639T273 636Q363 631
379 631ZM304 344Q416 344 453 353Q493 363 521 383T563 427T581 469T586 504Q586 565 555 588T470 612Q419 612 401 606T369 574Q336 516 304 344ZM296 320Q293 307 259 187Q235 103 235 62Q235 32 263 23T343 14Q390 14 427 25T484 55T518 93T536 133T542 164T544
180Q544 221 527 251T481 295T423 316T363 323Q359 323 296 320Z" />
<glyph unicode="C" glyph-name="C" horiz-adv-x="604" d="M667 635Q667 634 661 610T653 583Q630 482 624 443Q622 430 614 430Q609 430 608 435T606 459Q603 521 580 561Q563 591 531 610T463 629Q387 629 329 564T243 409T215 228Q215 166 232 122T276 58T325
30T369 22Q423 22 481 57T577 152Q586 166 592 166Q601 166 601 157Q601 146 581 120T526 64T437 11T321 -12Q220 -12 165 60T109 232Q109 317 141 396T223 529T337 616T463 649Q506 649 558 625Q592 609 602 609Q623 609 639 629Q654 644 659 644Q667 644 667
635Z" />
<glyph unicode="D" glyph-name="D" horiz-adv-x="740" d="M349 -2L213 1Q202 2 150 0T90 -3L51 -4Q37 -4 37 5Q37 10 69 19Q94 27 104 31T127 46T145 74Q180 221 195 289T224 428T237 532Q237 563 216 587T159 611Q137 611 137 620Q137 624 138 626T145 628T153
629T168 629Q191 628 304 635T434 642Q533 642 599 617T714 517Q764 439 764 328Q764 309 762 289T752 235T729 170T685 108T617 53Q508 -7 349 -2ZM432 621Q392 621 374 604T340 529Q315 439 286 304T257 99Q257 20 364 20Q437 20 494 50T581 122T631 215T656
302T662 362Q662 427 637 488T572 579Q520 621 432 621Z" />
<glyph unicode="E" glyph-name="E" horiz-adv-x="677" d="M368 607Q362 593 350 551T326 466T304 386T294 346Q323 343 354 345T413 355T463 383T500 439Q507 458 509 462T516 466Q525 466 525 456Q525 455 509 395T491 328Q464 204 463 200Q459 180 458 177T450
173Q441 173 441 183Q441 184 442 202T442 225Q433 278 418 297T373 322Q360 324 289 324Q287 313 273 261T247 163T235 101Q235 73 247 55T282 31T320 23T358 21Q405 21 426 22T474 29T522 49T568 87T630 150Q638 163 652 177Q657 182 661 182Q668 182 668 172Q668
144 606 -1Q599 0 536 -1T465 -2Q442 -2 322 1T183 4Q171 4 107 1T33 -3Q19 -3 19 6Q19 10 25 12T58 21Q92 28 105 39T134 90T179 232Q199 300 222 399T245 531Q245 609 166 609Q147 609 147 619Q147 626 151 627T172 629Q241 629 433 634Q600 639 664 640Q671
606 675 511Q675 509 676 498T677 485Q677 475 670 475T648 510Q639 533 618 558T584 594Q556 615 502 615Q426 615 368 607Z" />
<glyph unicode="F" glyph-name="F" horiz-adv-x="656" d="M546 441L527 370Q521 348 480 184Q480 181 477 174T468 167Q459 167 459 176Q459 179 462 200T465 226Q465 262 447 284T402 313T347 322T295 321L257 194Q228 94 228 68Q228 49 244 35T274 19Q299 14
304 13T309 5Q309 -3 295 -3Q280 -3 200 1T107 5Q104 5 86 5T56 4T37 4Q28 6 28 14Q28 23 54 23Q83 25 101 37T125 61T139 96Q162 160 212 340T263 568Q263 587 247 598T219 612T199 614Q181 614 181 623Q181 634 198 634T304 632T408 630Q665 625 710 627Q714
556 707 479Q705 455 703 449T696 443Q685 443 683 461Q678 493 659 536T610 594Q577 610 453 610Q412 610 387 605Q351 543 304 343Q407 341 443 351T506 401Q507 403 514 417T527 441T538 452Q546 452 546 441Z" />
<glyph unicode="G" glyph-name="G" horiz-adv-x="729" d="M605 33L596 30Q587 27 575 24T546 16T510 7T471 -2T428 -8T387 -10Q336 -10 288 6T198 55T131 143T105 272Q105 366 152 452T288 594T488 651Q566 651 643 617L672 602Q700 588 706 588Q714 588 732 607Q734
613 742 613Q751 613 751 604L732 526Q712 448 710 436Q707 425 702 425Q694 425 692 430T687 463Q680 522 632 576T498 631Q434 631 378 593T287 496T231 372T211 248Q211 152 266 81T397 10Q423 10 455 20T505 52Q527 80 537 123T548 202Q548 218 546 227T537
248T512 266T468 277Q457 279 457 287T468 295Q476 295 518 293T568 291Q579 291 634 290T699 289Q732 289 743 287Q753 284 753 278T748 271T720 268Q676 265 659 218Q642 179 605 33Z" />
<glyph unicode="H" glyph-name="H" horiz-adv-x="771" d="M737 625L790 624L867 625Q882 625 882 616Q882 610 878 609T852 604Q798 596 781 569T738 438Q671 167 664 120Q661 98 661 77Q661 54 678 37T718 18Q743 16 743 8Q743 -3 725 -3Q717 -3 677 -2T631 0Q618
0 552 -2Q488 -4 476 -4Q461 -4 461 6Q461 12 464 13T486 17Q546 25 566 86Q597 184 620 305Q547 308 277 308Q276 301 264 248T242 151T233 93Q233 22 305 17Q308 17 313 16Q323 16 326 15T331 13T333 7Q333 -1 323 -1H64Q36 -1 31 0T26 9Q26 14 31 16T66 24Q105
31 124 71T170 219Q210 385 231 482Q237 510 237 538Q237 576 222 591T163 611Q151 613 151 620Q151 630 165 630Q178 630 248 629T330 628L421 629Q444 629 444 618Q444 609 430 609Q423 609 411 608T379 599T351 580Q337 563 328 529T283 334Q332 330 433 330Q569
330 627 332Q671 490 671 547Q671 609 597 609Q573 609 573 620Q573 629 586 629Q598 629 662 627T737 625Z" />
<glyph unicode="I" glyph-name="I" horiz-adv-x="344" d="M115 0L49 -1Q34 -1 34 7Q34 13 40 15T71 21Q98 25 115 41T137 72T149 116Q151 125 205 335T260 562T255 588T239 604T222 611T204 615Q175 620 175 627Q175 633 180 634T215 635Q233 635 330 633T444
630Q451 626 451 621Q451 615 447 614T422 610Q380 605 364 576T320 446Q272 267 248 166Q229 84 229 65Q229 22 281 17Q303 15 303 6T285 -3Q271 -3 199 -1Q178 -1 148 -1T115 0Z" />
<glyph unicode="J" glyph-name="J" horiz-adv-x="490" d="M583 634Q607 634 607 624Q607 616 580 613Q531 608 514 579T467 435Q401 183 383 131T332 48Q273 -8 168 -8Q130 -8 103 5T64 39T46 78T40 112Q40 142 59 165T105 189Q120 189 134 181T148 151Q148 136
143 127T117 93Q108 81 108 65Q108 40 125 25T167 10Q200 10 226 26T269 74T296 132T318 201Q333 254 396 503Q407 544 407 569Q407 591 394 600T346 616Q331 618 331 627Q331 637 350 637Q360 637 386 637T425 636Q477 634 487 634H583Z" />
<glyph unicode="K" glyph-name="K" horiz-adv-x="646" d="M146 1H101L63 -1Q50 -1 50 8Q50 18 71 19Q108 22 124 52T156 144Q215 388 229 454T243 567T192 613Q168 614 168 623Q168 626 174 632Q183 633 199 633T258 633L325 634Q433 634 437 633Q444 632 444
624Q444 618 430 616Q384 609 369 595T333 517Q297 402 280 307Q357 353 553 520Q589 550 589 582Q589 592 581 602T552 615Q539 617 536 618T533 626Q533 631 538 633L554 632Q571 632 590 632T614 632H653L687 634L712 632L756 635Q767 632 767 624Q767 619 759
616Q728 612 701 599T632 553Q558 497 408 371Q473 335 490 296T517 157Q522 103 533 75T558 37T596 23Q597 23 612 22T630 19Q636 18 636 11T621 3Q526 -1 471 0Q436 21 436 89Q436 127 435 153T429 212T414 265T386 299T342 313Q328 313 301 297T275 278Q233
116 233 60Q233 45 245 34T274 20Q291 17 295 15T300 7Q300 2 295 1Q285 -1 254 -1Q239 -1 200 0T146 1Z" />
<glyph unicode="L" glyph-name="L" horiz-adv-x="656" d="M166 0H99L32 -1Q19 -1 19 7Q19 13 24 15T55 21Q88 26 111 50T142 94T159 144Q248 447 248 526Q248 561 227 582T189 608T158 614Q128 616 128 625Q128 635 143 635L158 634Q170 633 274 633H370L447 634Q468
634 468 625Q468 620 464 619T445 615Q392 609 373 586T338 502Q246 153 246 95Q246 17 363 17Q422 17 458 23T528 52T582 97T648 174Q656 182 660 182Q668 182 668 173Q668 163 641 93T601 -2Q562 -5 495 -5Q434 -5 329 -2Q259 0 166 0Z" />
<glyph unicode="M" glyph-name="M" horiz-adv-x="885" d="M250 0L34 1Q19 1 19 10Q19 18 34 20Q52 22 84 34T128 60Q145 80 171 169Q182 207 238 411Q269 526 269 547Q269 565 263 577T242 597T215 608T177 618Q168 621 168 627Q168 636 182 636Q188 636 208 636T238
635Q248 635 291 634T342 633H405Q407 619 413 553T420 477Q427 422 471 160Q529 232 652 419T791 629Q851 633 895 633Q951 633 1005 630Q1014 628 1014 621Q1014 616 1011 615T993 611Q944 603 918 576T865 473Q832 379 800 253T767 85Q767 23 838 18Q851 17
851 9Q851 0 839 0T763 1T688 2Q679 2 631 1T574 -1Q559 -1 559 8Q559 14 565 16T601 26Q625 31 636 42T659 83T692 185Q757 415 791 573L789 575Q731 501 490 130Q420 29 420 28Q411 7 404 7Q399 7 396 10Q370 228 342 407Q327 504 314 558H312Q290 508 211 228Q172
89 172 70Q172 58 178 49T193 34T210 27T225 23L232 22Q267 20 267 10T250 0Z" />
<glyph unicode="N" glyph-name="N" horiz-adv-x="771" d="M299 2H44Q31 2 31 11Q31 16 34 17T54 21Q82 23 97 26T131 44T159 77T185 141T216 236T254 377Q254 379 270 447T291 528Q252 580 235 594T176 614Q152 618 148 619T143 627Q143 636 170 636Q180 636 261
632T351 626L455 438Q496 362 553 265T620 154Q641 201 698 388Q735 508 735 536Q735 566 716 587T676 610Q650 612 644 614T637 622Q637 629 646 630T699 632Q867 635 873 635Q887 635 887 624Q887 619 883 618T863 614Q811 607 786 563T722 396L614 23Q611 12
609 6T606 -1T601 -3Q594 -3 589 13Q585 27 468 233T318 487Q286 398 269 344Q253 293 228 202T203 89Q203 64 226 46T277 23Q299 20 304 18T309 11Q309 2 299 2Z" />
<glyph unicode="O" glyph-name="O" horiz-adv-x="688" d="M474 651Q542 651 593 626T671 561T711 478T724 389Q724 294 675 202T542 50T363 -10Q310 -10 266 8T194 56T147 123T120 197T112 268Q112 356 157 443T287 590T474 651ZM496 629Q419 629 353 563T250
397T214 194Q214 173 218 149T233 91T274 34T345 12Q411 12 467 60T556 180T607 324T626 451Q626 458 625 470T617 513T598 567T559 610T496 629Z" />
<glyph unicode="P" glyph-name="P" horiz-adv-x="646" d="M146 0L73 1Q70 1 56 0T40 -1Q25 -1 25 9Q25 18 50 19Q86 21 109 41T151 112Q164 147 208 325T253 542Q253 549 251 558T244 582T225 605T192 615Q172 615 172 624T185 633Q188 633 208 633T241 632Q265
631 297 631Q298 631 338 631T423 633T481 634Q513 634 546 628T618 607T681 558T706 476Q706 423 673 382T595 321Q518 289 404 289Q349 289 296 297Q246 129 246 73Q246 46 263 32T303 16Q324 14 329 13T334 5Q334 -4 316 -4Q309 -4 270 -3T225 -1Q217 0 146
0ZM302 317Q359 311 380 311Q439 311 483 327T549 364T585 414T601 458T604 488Q604 502 599 519T580 560T537 598T463 614Q428 614 381 604Q379 597 373 576T359 529T350 499Q345 484 325 405T302 317Z" />
<glyph unicode="Q" glyph-name="Q" horiz-adv-x="677" d="M750 -75L754 -74Q760 -74 760 -82Q760 -125 701 -190T562 -256Q485 -256 421 -189Q366 -131 342 -112T290 -92Q268 -92 254 -103T194 -167Q157 -210 117 -210Q113 -210 107 -209T93 -200T85 -180Q85 -132
190 -95Q310 -53 385 22Q335 20 290 30T204 64T139 137T115 254Q115 405 217 522Q327 649 464 649Q573 649 640 576T708 403Q708 337 684 270T598 132T442 9Q332 -49 318 -58L297 -70L299 -72Q370 -66 434 -102Q509 -145 533 -156T582 -167Q618 -167 661 -149T727
-102Q729 -100 739 -88T750 -75ZM475 629Q359 629 279 461Q213 320 213 217Q213 136 251 88Q268 67 293 56T341 44Q412 44 474 116T569 282T602 455Q602 525 568 577T475 629Z" />
<glyph unicode="R" glyph-name="R" horiz-adv-x="667" d="M297 325Q283 290 258 196T233 68Q233 29 303 20Q318 20 318 12Q318 1 300 1Q292 1 272 2L253 3Q228 5 171 5Q162 5 115 4T60 3Q47 3 47 11Q47 17 53 19T80 23Q112 26 124 52T171 202Q221 395 236 463Q250
524 250 556Q250 583 234 597T182 618Q170 620 170 627Q170 636 181 636Q189 636 230 634T279 632Q292 632 362 633T444 634Q666 634 666 492Q666 406 577 353Q554 340 492 325Q511 313 520 305T543 282T563 244T569 190Q569 180 563 129T557 70Q557 57 565 49T583
40Q603 40 658 77Q667 83 673 83T679 76Q679 67 647 46Q567 -8 517 -8Q507 -8 495 -5T469 13T455 54Q455 76 468 133Q476 166 476 203Q476 239 470 263T455 300T428 319T396 326T356 327Q339 327 297 325ZM301 347Q391 343 446 354Q510 367 538 416T566 510Q566
554 533 584T440 614Q419 614 371 608Q370 605 357 569T342 524Q305 390 301 347Z" />
<glyph unicode="S" glyph-name="S" horiz-adv-x="552" d="M140 69Q130 64 109 50T82 28Q58 4 52 4Q45 4 45 9L59 37Q64 50 93 126T128 215Q145 255 153 255T161 247Q161 242 159 234L157 227Q149 204 149 181Q149 110 200 62T320 14Q375 14 405 46T435 116Q435
163 407 203T293 332Q250 376 232 408T213 482Q213 559 267 605T402 652Q487 652 532 593Q550 570 555 570T579 598Q586 611 588 613T594 615Q602 615 602 606Q602 603 580 509T553 409Q547 403 543 403Q535 403 535 414Q535 418 537 436T539 457Q539 531 502 581T400
632Q358 632 326 606T294 534Q294 471 348 417Q452 313 484 268T516 171Q516 104 467 49T325 -6Q214 -6 140 69Z" />
<glyph unicode="T" glyph-name="T" horiz-adv-x="708" d="M539 607Q513 541 450 316T387 59Q387 39 411 32T489 19Q490 19 491 19Q502 18 505 18T510 16T512 11Q512 -2 487 -2Q478 -2 432 -1T378 0H188Q177 2 177 8Q177 18 204 18Q256 18 271 34T303 104Q357 291
394 448Q425 580 432 603Q404 609 371 609Q317 609 273 587T167 502Q164 500 153 487T138 471Q136 469 133 469Q125 469 125 477Q125 486 149 540T196 633Q198 633 264 632T405 630T501 629T622 632T764 633Q765 622 769 550T774 468Q774 457 765 457Q759 457 754
483Q751 500 742 518T715 559T663 596T585 611Q565 611 539 607Z" />
<glyph unicode="U" glyph-name="U" horiz-adv-x="729" d="M239 545Q241 558 240 568T236 586T228 598T215 606T201 611T185 614T169 617Q158 618 158 626Q158 636 170 636Q171 636 243 633Q262 632 313 632Q336 632 382 634Q395 634 411 634T430 635Q443 635 446
633T449 622Q449 618 447 617T434 614T405 611Q374 608 352 571T310 447Q257 213 257 150Q257 100 295 59T413 18Q501 18 547 68T625 217Q686 405 686 504Q686 600 597 613Q583 615 580 617T577 624Q577 633 598 633Q608 633 666 631Q680 630 704 629T732 628Q740
628 774 630Q783 630 795 631T809 632Q821 632 821 622Q821 616 818 615T800 612Q750 606 735 573T706 446Q696 371 663 252T586 73Q554 27 495 7T378 -13Q347 -13 314 -7T245 14T186 61T163 137Q163 176 201 359T239 545Z" />
<glyph unicode="V" glyph-name="V" horiz-adv-x="604" d="M519 634L563 633L639 635L731 634Q770 634 770 624Q770 617 761 617Q731 611 718 607T689 595T655 570T617 530T558 462Q411 292 396 270L250 112L150 4Q134 -17 124 -17Q117 -17 117 -10L148 114Q180
239 211 376T242 545Q242 596 175 607Q174 607 173 607Q163 608 160 609T155 611T153 616Q153 626 175 626L284 624Q298 624 366 628T436 632Q446 632 446 624Q446 618 442 617T412 612Q377 607 363 588T332 509Q296 379 247 146L249 144Q300 191 426 336T573 533Q579
554 579 565Q579 588 566 600T532 613Q520 614 516 614T508 616T504 618T503 623Q503 634 519 634Z" />
<glyph unicode="W" glyph-name="W" horiz-adv-x="917" d="M1015 633L1071 635Q1091 635 1091 623Q1091 617 1085 615T1054 609Q1046 608 1031 603T988 578T938 531Q876 448 851 417T773 328T635 192Q510 73 453 7Q435 -14 430 -14Q421 -14 421 0Q421 20 521 393Q522
396 525 407T528 419L526 421Q501 396 385 270T257 131L131 0Q118 -13 111 -13Q103 -13 103 -3Q103 5 132 104T175 244Q246 465 246 546Q246 568 231 585T199 605Q175 609 175 615Q175 625 192 625Q212 625 312 628T429 631Q447 631 447 620Q447 615 442 613T417
608Q373 602 341 501Q324 447 303 383T262 248T240 145Q259 164 303 212T391 307T468 392L503 429Q519 448 528 461T548 505T560 572Q560 585 552 593T536 604T513 610Q503 612 503 619Q503 628 547 628H717H762Q769 627 769 619Q769 610 757 610Q718 610 691 584T633
468Q573 299 542 135L544 133L701 283Q731 313 766 350T861 462T920 566Q920 583 908 597T869 612Q851 612 846 613T840 623Q840 633 862 633H1015Z" />
<glyph unicode="X" glyph-name="X" horiz-adv-x="708" d="M689 2L587 5L375 2Q364 2 364 10Q364 19 375 19Q425 26 448 36T472 65Q472 78 447 140Q443 150 421 206T394 272Q347 225 284 155Q228 94 228 61Q228 53 231 45T246 28T277 18Q300 18 300 9Q300 -1 285
-1Q277 -1 238 0T192 1Q182 1 129 -1T66 -4Q49 -4 49 5Q49 13 61 13Q94 16 124 33T171 65T217 113L298 201Q380 289 384 293Q298 510 261 566Q232 608 174 608Q151 608 151 616Q151 628 172 628H173H294L444 633Q466 633 466 622Q466 613 437 611Q413 609 397 598T380
567Q380 522 451 362Q463 372 521 435Q575 493 588 513T601 557Q601 601 548 608Q524 611 524 619Q524 628 537 628Q544 628 582 627T626 626Q665 626 753 632Q765 633 773 633Q789 633 789 622Q789 617 783 615T750 607Q693 594 625 520Q519 405 462 338Q480 292
490 267T519 201T553 135T587 83T625 42T666 24Q682 21 689 20T699 17T701 11Q701 2 689 2Z" />
<glyph unicode="Y" glyph-name="Y" horiz-adv-x="698" d="M433 346L435 344Q497 459 514 487T559 547Q646 649 736 649Q766 649 785 628T804 584Q804 577 802 566T787 541T753 526Q734 526 725 536T697 582Q689 603 669 603Q642 603 593 555T480 382Q422 272 397
192T372 75Q372 46 391 30T441 13Q469 13 476 12T484 4Q484 -5 464 -5Q429 -5 367 -2Q287 0 272 0Q237 0 211 -2Q199 -2 178 -3T152 -5Q136 -5 136 5Q136 11 141 12T171 14Q249 14 288 113Q299 134 335 266T371 478Q371 522 361 551T336 590T312 602T297 605Q255
605 220 572T173 503Q154 440 151 437Q149 435 146 435Q138 435 138 444Q138 475 158 520T222 604T320 644Q337 644 355 636T394 610T428 555T442 468Q442 403 433 346Z" />
<glyph unicode="Z" glyph-name="Z" horiz-adv-x="625" d="M574 0H448Q121 0 112 -1Q100 -4 79 -4Q71 -4 71 2Q71 11 127 77L350 338Q409 406 454 459T515 531T543 564T567 591Q573 597 573 602Q573 606 557 606L388 609Q350 610 319 596T213 520Q175 489 157 467Q149
459 145 459Q135 459 135 468Q135 472 175 547T223 634Q363 627 523 628L684 629Q693 629 693 624Q693 616 675 594L354 210Q340 193 288 131T213 44Q203 32 203 29Q203 24 211 24Q221 21 318 21Q433 21 472 35T566 109Q600 147 623 195Q628 207 635 207Q643 207
643 198Q643 194 610 99T574 0Z" />
<glyph unicode="[" glyph-name="bracketleft" horiz-adv-x="448" d="M300 589Q292 549 219 226T124 -183Q234 -155 263 -149T319 -143Q360 -143 388 -168T417 -224Q417 -240 408 -252T391 -265Q381 -265 381 -257Q381 -254 390 -241Q392 -235 392 -230Q392 -217
382 -211T362 -204T332 -203Q241 -203 175 -209Q131 -213 104 -213Q93 -213 93 -205L157 66Q221 338 233 395Q262 534 279 611Q279 615 283 615Q291 615 332 613T379 610Q499 606 534 606Q555 606 567 613T582 627T585 637Q585 639 583 647T581 657Q581 665 589
665Q599 665 604 652T609 627Q609 596 579 571T514 546Q468 546 300 589Z" />
<glyph unicode="\" glyph-name="backslash" horiz-adv-x="500" d="M159 660L503 -18H461L117 660H159Z" />
<glyph unicode="]" glyph-name="bracketright" horiz-adv-x="448" d="M254 -189Q262 -149 335 174T430 583Q320 555 291 549T235 543Q194 543 166 568T137 624Q137 640 146 652T163 665Q173 665 173 657Q173 654 164 641Q162 635 162 630Q162 617 172 611T192
604T222 603Q313 603 379 609Q423 613 450 613Q461 613 461 605L397 334Q333 62 321 5Q292 -134 275 -211Q275 -215 271 -215Q263 -215 222 -213T175 -210Q55 -206 20 -206Q-1 -206 -13 -213T-28 -227T-31 -237Q-31 -239 -29 -247T-27 -257Q-27 -265 -35 -265Q-45
-265 -50 -252T-55 -227Q-55 -196 -25 -171T40 -146Q86 -146 254 -189Z" />
<glyph unicode="^" glyph-name="asciicircum" horiz-adv-x="427" d="M296 633L504 283H459L288 569L117 283H71L282 633H296Z" />
<glyph unicode="_" glyph-name="underscore" horiz-adv-x="500" d="M506 -125H-6V-75H506V-125Z" />
<glyph unicode="`" glyph-name="grave" horiz-adv-x="333" d="M365 470Q365 461 357 461Q351 461 332 481Q252 566 234 589T216 630Q216 641 224 649T245 657Q266 657 281 638T319 576Q365 477 365 470Z" />
<glyph unicode="a" glyph-name="a" horiz-adv-x="458" d="M424 417L467 409Q446 359 398 205Q356 70 356 47Q356 31 371 31Q397 31 447 87Q460 103 466 103Q468 103 471 100T474 95Q474 80 420 36T326 -9Q298 -9 298 30Q298 45 301 96L299 98Q226 -4 143 -4Q119
-4 103 8T82 38T75 66T73 81Q73 141 116 221T224 360T344 419Q389 419 395 358H397Q404 379 424 417ZM317 393Q280 393 239 341T171 220T144 100Q144 37 188 37Q246 37 304 145Q360 247 360 328Q360 354 349 373T317 393Z" />
<glyph unicode="b" glyph-name="b" horiz-adv-x="417" d="M224 376L226 374Q283 419 335 419Q386 419 411 376T437 278Q437 172 360 81T202 -11Q189 -11 174 -8T139 6T106 40T93 98Q93 136 102 175T167 400Q171 414 193 493T220 586Q227 608 227 620Q227 630 221
636T207 644T182 649Q169 651 169 659T179 667Q185 667 218 666T257 665Q269 665 286 665T308 666Q306 658 290 604L224 376ZM221 13Q280 13 324 97T369 291Q369 393 315 393Q286 393 257 367T211 306Q187 256 174 197T161 109Q161 89 164 71T181 33T221 13Z" />
<glyph unicode="c" glyph-name="c" horiz-adv-x="333" d="M325 416Q355 416 372 397T389 357Q389 339 380 329T358 319Q334 319 324 358Q320 376 315 383T298 390Q263 390 225 340T162 221T138 94Q138 14 191 14Q221 14 254 42T311 104Q323 122 330 122Q338 122
338 113Q338 102 306 64Q241 -12 162 -12Q117 -12 90 14T62 87Q62 156 103 234T207 364T325 416Z" />
<glyph unicode="d" glyph-name="d" horiz-adv-x="479" d="M565 657Q559 636 509 490T419 214T378 55Q378 47 383 42T394 37Q423 37 473 100Q496 123 497 123Q500 123 503 119T507 113Q507 106 483 78T422 21T358 -7Q341 -7 328 11T315 55Q315 71 318 92L316 94Q289
63 271 45T222 9T159 -9Q72 -9 72 86Q72 154 112 226T217 347T344 396Q372 396 411 385L436 456Q460 528 467 547Q484 595 484 614Q484 623 478 628T464 636T436 643Q426 646 420 647T410 650T406 652T405 657Q405 666 414 666Q416 666 500 659Q511 659 532 659T565
657ZM335 376Q297 376 252 333T175 225T143 102Q143 75 154 48T188 20Q210 20 243 47T305 113Q335 155 359 219T384 328Q384 347 372 361T335 376Z" />
<glyph unicode="e" glyph-name="e" horiz-adv-x="344" d="M154 172Q138 101 138 70Q138 52 149 34T183 16Q213 16 246 40T300 99Q312 116 321 116T330 107Q330 82 277 36T164 -10Q117 -10 92 24T67 99Q67 197 163 320Q240 419 317 419Q346 419 364 399T383 355Q383
320 357 287T292 229Q252 203 154 172ZM162 194Q252 234 293 285T334 370Q334 379 328 389T308 399Q288 399 263 380T215 327Q188 284 162 194Z" />
<glyph unicode="f" glyph-name="f" horiz-adv-x="281" d="M92 372L98 400Q124 401 202 404Q209 430 215 451T240 516T283 589T345 643T431 667Q478 667 502 643T527 590Q527 573 516 559T484 544Q469 544 458 554T446 579Q446 591 457 606Q464 620 464 624Q464
634 454 640T429 647Q404 647 383 634T346 601T316 549T291 485T269 410Q285 408 362 408Q362 406 360 394T357 379Q349 379 308 378T260 377Q258 369 210 196T139 -46Q131 -71 121 -95T91 -152T49 -208T-7 -249T-79 -266Q-125 -266 -153 -242T-182 -185Q-182 -164
-169 -149T-136 -134Q-120 -134 -109 -144T-97 -169Q-97 -173 -103 -192T-109 -214Q-109 -225 -99 -234T-69 -244Q-8 -244 35 -153T144 182Q146 190 158 236T180 322T195 375Q186 375 143 374T92 372Z" />
<glyph unicode="g" glyph-name="g" horiz-adv-x="469" d="M426 350Q439 324 439 298Q439 218 378 163T242 106Q187 105 168 103T139 92Q130 85 130 77Q130 50 219 32Q243 27 264 23T303 15T336 5T363 -6T385 -21Q422 -53 422 -98Q422 -159 355 -212T176 -266Q86
-266 39 -234T-9 -161Q-9 -124 31 -83T140 -15Q81 8 81 50Q81 57 83 64T92 83T121 107T173 123Q156 138 147 147T128 179T117 229Q117 306 175 363T312 420Q378 420 414 368Q466 422 500 422Q523 422 540 408T557 374Q557 363 549 351T525 338Q513 338 506 343T486
366Q476 378 464 378Q450 378 426 350ZM306 400Q268 400 239 366T196 288T183 205Q183 175 199 151T245 126Q283 126 312 162T355 241T368 318Q368 347 354 373T306 400ZM174 -29Q132 -37 104 -57T66 -101T54 -138T51 -158Q51 -196 85 -221T186 -246Q264 -246 314
-209T364 -127Q364 -111 359 -99T339 -77T313 -61T273 -49T229 -39T174 -29Z" />
<glyph unicode="h" glyph-name="h" horiz-adv-x="458" d="M207 264L209 262Q329 424 395 424Q420 424 435 409T451 370Q451 331 402 191Q357 68 357 39Q357 33 361 28T371 23Q388 23 431 66L443 81Q455 96 464 106T477 116Q485 116 485 105Q485 98 464 71T405
16T335 -12Q310 -12 299 -2T287 23Q287 42 311 109Q375 289 380 321Q386 339 386 361T369 383Q339 383 286 330Q221 265 183 168Q178 154 155 83T127 0Q124 -10 117 -10Q104 -10 83 -5T62 4Q62 5 155 294T249 611Q249 624 218 633Q207 635 200 637T189 640T182
642T179 645T178 650Q178 657 184 658T217 659Q315 659 323 658Q329 656 329 652Q329 643 289 515T207 264Z" />
<glyph unicode="i" glyph-name="i" horiz-adv-x="281" d="M154 29Q154 12 168 12Q200 12 261 73Q272 84 279 84Q287 84 287 76Q287 67 263 45Q200 -12 147 -12Q117 -12 105 0T92 25Q92 46 153 197T215 367Q215 384 202 384Q188 384 156 359Q154 357 143 347T123
330T109 322Q102 322 102 330Q102 342 153 381T245 421Q262 421 274 409T286 382Q286 360 256 288Q171 84 159 49L154 29ZM296 656T312 656T339 645T351 617Q351 602 340 591T312 579T285 590T274 617T285 644Z" />
<glyph unicode="j" glyph-name="j" horiz-adv-x="250" d="M-68 -266Q-98 -266 -125 -248T-153 -192Q-153 -171 -141 -158T-107 -144Q-89 -144 -80 -154T-71 -177Q-71 -181 -71 -184T-72 -189T-76 -195T-80 -202T-89 -213T-96 -230Q-96 -248 -64 -248Q-1 -248 34
-177T144 145Q149 160 170 237T195 326Q205 349 205 377Q205 384 200 388T189 393Q164 393 119 337Q97 309 90 309Q81 309 81 317Q81 321 99 343T128 376Q178 426 218 426Q238 426 251 413T265 383Q265 338 200 128Q144 -54 128 -97T91 -171Q25 -266 -68 -266ZM281
658T297 658T324 647T335 620T324 593T297 581T270 592T258 620T269 647Z" />
<glyph unicode="k" glyph-name="k" horiz-adv-x="417" d="M202 246Q196 224 162 116T124 -2Q106 -4 82 -4Q78 -4 66 -2Q68 17 105 129Q142 240 238 576Q243 594 243 616Q243 644 217 647Q204 648 200 648T192 651T188 657Q188 668 211 668Q220 668 269 669T330
670Q213 289 209 265Q264 260 289 281T334 353Q339 367 343 375T356 395T377 414T406 420Q429 420 439 406T449 376T440 354T420 347Q405 347 393 361Q386 372 384 374T377 377Q364 377 356 355Q344 319 333 302T297 265Q308 257 314 252T326 233T333 198Q333 170
326 118Q316 54 316 43Q316 27 326 27Q334 27 368 53T410 80Q418 80 418 73Q418 67 415 63T396 47Q353 12 335 2T296 -9Q280 -9 271 1T259 20T257 35Q257 46 266 116T275 199Q275 234 245 243Q242 243 238 243T223 244T202 246Z" />
<glyph unicode="l" glyph-name="l" horiz-adv-x="260" d="M184 369Q253 588 253 616T203 644Q191 645 187 645T179 647T175 654Q175 664 196 664Q209 664 272 666T339 669Q336 656 287 497T193 189T148 23Q148 16 154 16Q165 16 196 39T254 94L267 111Q280 128
284 128Q293 128 293 120T270 82T208 21T132 -10Q125 -10 117 -8T101 6T93 34Q93 67 106 115T184 369Z" />
<glyph unicode="m" glyph-name="m" horiz-adv-x="698" d="M125 -9L82 -7Q87 6 120 100T160 212Q197 328 197 355Q197 372 185 372Q162 372 100 282Q88 264 81 264Q71 264 71 271Q71 285 124 348T215 412Q237 412 248 398T259 366Q259 332 222 231L224 229Q265
306 289 339Q348 420 403 420Q430 420 445 403T461 374T463 353Q463 328 439 231L441 229Q463 271 478 296T517 354T567 403T622 420T665 403T681 362Q681 309 598 79Q587 51 587 37Q587 32 590 28T599 24Q613 24 653 58T709 114Q719 128 727 128T735 122Q735 102
670 46T562 -11Q545 -11 535 2T525 30Q525 47 531 66T575 192Q619 317 619 365Q619 392 601 392Q552 392 471 245Q420 153 361 -7Q345 -9 325 -9Q318 -9 302 -7Q401 269 401 330Q401 386 376 386Q332 386 258 245T145 -7Q144 -7 137 -8T125 -9Z" />
<glyph unicode="n" glyph-name="n" horiz-adv-x="479" d="M238 245H240Q252 267 268 292T309 347T363 398T419 418Q445 418 456 400T467 363Q467 332 457 299T403 143Q375 68 375 44Q375 28 389 28T429 51T467 92Q480 114 489 114Q497 114 497 104Q497 84 447
36T351 -13Q332 -13 321 -4T308 12T306 25Q306 60 349 176Q363 213 372 240T388 285T398 316T403 339T405 360Q405 382 389 382Q368 382 325 337T231 192Q201 133 147 12Q137 -11 132 -11Q84 -11 84 1Q84 4 113 84T171 254T200 366Q200 372 196 376T186 380Q174
380 147 357T103 311Q90 294 83 294T76 302Q76 313 123 363Q175 419 231 419Q247 419 254 408T262 384Q262 353 241 260L238 245Z" />
<glyph unicode="o" glyph-name="o" horiz-adv-x="417" d="M291 416Q360 416 395 364T430 249Q430 156 365 73T204 -11Q168 -11 142 5T103 41T84 87T76 125T75 145Q75 248 143 332T291 416ZM301 396Q262 396 224 344T165 222T143 95Q143 60 159 35T203 9Q241 9
280 57T342 175T366 304Q366 396 301 396Z" />
<glyph unicode="p" glyph-name="p" horiz-adv-x="438" d="M202 387Q205 401 224 466T245 538Q283 537 309 533Q307 524 291 471T273 407Q291 412 316 412Q384 412 417 370T450 273Q450 166 371 92T146 -8Q118 -94 101 -154Q91 -184 91 -210Q91 -224 101 -232T122
-243T154 -248Q166 -248 166 -256Q166 -266 153 -266Q144 -266 99 -265T46 -264Q37 -264 -8 -267T-62 -270Q-75 -270 -75 -260Q-75 -253 -71 -252T-44 -249Q-7 -246 9 -222T49 -120L193 357Q162 341 127 310T79 261Q65 243 62 240T53 236Q46 236 46 244Q46 260
93 306T202 387ZM157 22Q167 20 175 20Q197 20 229 34T295 74T354 149T379 255Q379 268 377 283T368 326T340 370T288 388Q282 388 266 384Q253 343 214 210T157 22Z" />
<glyph unicode="q" glyph-name="q" horiz-adv-x="438" d="M425 415H473Q465 383 444 305T415 198Q407 166 367 18T322 -145Q312 -184 312 -204Q312 -242 345 -245Q366 -247 370 -248T374 -256Q374 -266 360 -266Q353 -266 315 -264T271 -262Q262 -262 216 -264T163
-266Q149 -266 149 -255Q149 -250 154 -248T178 -244Q212 -240 224 -228T253 -158Q269 -103 309 48L307 50Q253 -13 193 -13Q132 -13 103 30T74 122Q74 224 144 320T286 416Q308 416 330 401T367 362Q368 360 370 356Q380 340 383 337T392 332Q424 414 425 415ZM145
111Q145 69 165 42T211 15Q238 15 271 40T326 121Q362 219 362 298Q362 336 340 365T288 394Q251 394 217 346T164 233T145 111Z" />
<glyph unicode="r" glyph-name="r" horiz-adv-x="375" d="M155 -10H95L103 14Q111 37 124 81Q150 171 172 262T195 372Q195 382 187 382T154 358T107 304Q92 282 84 282T76 290Q76 296 98 326T154 386T215 417Q234 417 244 406T255 380Q255 371 249 328T243 282L245
280Q325 417 389 417Q416 417 428 402T440 371Q440 354 429 339T399 323Q367 323 360 351Q354 370 347 370Q326 370 286 308T224 201Q216 176 193 105T163 12Q161 5 155 -10Z" />
<glyph unicode="s" glyph-name="s" horiz-adv-x="313" d="M300 129Q300 71 259 30T161 -12Q116 -12 88 12T59 62Q59 77 69 90T98 104Q111 104 122 96T133 71Q133 68 129 53T124 36Q124 24 137 17T168 10Q192 10 208 18T232 40T242 63T245 81Q245 102 235 119T196
177Q145 245 145 297Q145 342 178 381T264 421Q300 421 327 401T354 357Q354 341 344 330T319 319Q292 319 292 347Q292 378 291 379Q288 388 276 393T252 399Q233 399 213 386T192 340Q192 326 201 308T221 275T258 227Q300 175 300 129Z" />
<glyph unicode="t" glyph-name="t" horiz-adv-x="281" d="M190 384L144 385L112 384Q105 384 105 391Q105 399 106 403T109 407T115 409Q145 413 199 413Q202 423 222 484T246 556Q249 564 254 564Q267 564 286 561T305 550Q305 548 303 546L259 411Q266 411 302
410T346 408Q352 408 352 404Q352 382 344 382Q342 382 300 384T254 387Q253 383 236 333T202 233T171 131T156 60Q156 31 178 31Q197 31 228 58T285 114Q295 125 301 125Q310 125 310 118Q310 114 294 95T254 51T194 8T124 -11Q79 -11 79 29Q79 50 88 79T135 223Q140
237 164 307T190 384Z" />
<glyph unicode="u" glyph-name="u" horiz-adv-x="469" d="M142 195Q166 259 177 293T191 332Q200 354 200 368Q200 372 197 375T189 379Q168 379 113 313Q92 287 85 287T78 294Q78 312 129 362T218 413Q236 413 250 398T264 364Q264 338 232 258Q166 95 166 53Q166
45 171 37T185 28Q225 28 310 159Q333 194 347 224T434 411Q446 413 453 413Q468 413 488 411Q484 400 451 310T394 145T370 46Q370 40 374 37T382 33Q397 33 422 59T463 108Q476 126 483 126T490 118Q490 98 438 45T345 -9Q327 -9 319 6T311 39Q311 87 332 154L330
156Q307 121 291 99T250 48T200 6T151 -8Q132 -8 118 7T104 45Q104 94 142 195Z" />
<glyph unicode="v" glyph-name="v" horiz-adv-x="448" d="M271 343L269 345Q249 332 238 332Q226 332 215 339T178 371Q167 382 154 382Q142 382 142 374Q142 369 152 350Q162 332 162 323Q162 313 152 301T125 288Q109 288 100 300T91 326Q91 362 120 385T176
409Q194 409 235 388Q259 375 282 375Q292 375 297 380T313 404Q320 415 327 415Q331 415 336 411T341 402Q341 393 336 387T301 354Q284 338 254 258T224 107Q224 30 257 30Q287 30 330 69T405 168T438 275Q438 298 417 352Q417 353 415 359T412 373T410 386Q410
397 419 407T443 418T468 407T482 378T487 352T488 335Q488 287 459 216T390 94Q349 40 302 14T218 -12Q183 -12 165 8T146 59Q146 87 158 128T182 192T198 225Q201 231 271 343Z" />
<glyph unicode="w" glyph-name="w" horiz-adv-x="688" d="M284 350L282 352Q271 341 252 341Q244 341 228 352Q176 390 152 390Q130 390 130 378Q130 372 145 365Q166 356 166 330Q166 318 156 307T129 295Q110 295 97 307T83 337Q83 370 114 393T183 416Q212
416 252 397Q278 382 291 382Q303 382 323 408Q330 418 339 418Q347 418 347 409Q347 402 335 388Q320 370 289 322T241 239Q211 173 211 128Q211 100 226 68T277 36Q319 36 375 90Q385 98 407 126Q401 233 435 322T514 411Q552 411 552 359Q552 326 531 268T465
159Q474 123 486 98T510 63T531 48T547 44Q594 44 639 117T684 262Q684 285 670 353Q668 363 668 371Q668 386 677 394T697 403Q732 403 732 358Q732 318 715 253T684 152Q664 99 616 47T509 -6Q467 -6 440 20T407 91Q310 -12 231 -12Q192 -12 172 13T151 72Q151
171 284 350ZM457 187Q520 271 520 340Q520 380 500 380Q486 380 467 345T448 265Q448 229 457 187Z" />
<glyph unicode="x" glyph-name="x" horiz-adv-x="490" d="M237 64L220 50Q202 35 189 26T155 7T116 -3Q91 -3 63 13T35 56Q35 77 47 89T77 101Q89 101 96 93T104 73Q104 70 103 59T101 47Q101 39 108 30T129 21Q161 21 192 63Q209 87 228 127Q288 262 288 331Q288
360 277 375T253 390Q224 390 183 344Q167 327 159 327T151 334Q151 347 191 379Q228 416 271 416Q326 416 337 353Q341 351 342 351Q344 351 349 355T358 363T367 373T373 379Q411 417 459 417Q487 417 505 398T523 355Q523 342 514 331T485 319Q469 319 462 328T455
348Q455 350 457 362T459 377Q459 391 444 391Q409 391 379 354Q360 328 351 305Q293 160 293 82Q293 61 299 47T316 27T332 20T342 18Q365 18 394 35T448 83Q463 103 466 106T474 109Q482 109 482 100Q482 79 432 37T328 -6Q283 -6 261 24Q251 36 237 64Z" />
<glyph unicode="y" glyph-name="y" horiz-adv-x="375" d="M264 58Q287 91 325 171T363 305Q363 329 355 358Q351 375 351 381Q351 400 360 409T381 418Q394 418 402 406T410 380Q410 325 365 212T240 -25Q219 -56 195 -88T134 -163T57 -234T-14 -261Q-41 -261
-59 -246T-77 -203Q-77 -185 -67 -171T-38 -156Q-23 -156 -15 -165T-6 -180T-4 -199Q-4 -225 16 -225Q29 -225 45 -214T68 -197Q107 -164 137 -126T212 -26Q191 170 166 311Q155 369 137 369Q113 369 80 294Q65 261 55 261Q47 261 47 269Q47 281 87 355Q126 420
166 420Q191 420 204 392T228 300Q229 294 244 186T264 58Z" />
<glyph unicode="z" glyph-name="z" horiz-adv-x="479" d="M227 164L384 316Q383 316 376 316T364 317T339 315T314 312Q292 312 278 320T229 359Q213 373 208 376T197 383T183 386Q161 386 141 368T120 317Q120 287 142 287Q142 339 180 339Q197 339 210 327T224
296Q224 273 208 259T170 244Q141 244 120 266T99 320Q99 360 131 389T202 419Q231 419 251 412T328 375Q354 360 370 352T398 344Q403 344 408 349T434 377Q471 420 493 420Q502 420 508 414T514 400Q514 390 506 381T492 368T470 356Q448 344 427 326T331 235Q315
219 264 169T212 117Q205 110 207 99Q236 105 244 105Q264 105 279 98T330 65Q350 51 369 51Q431 51 465 140Q472 161 481 161Q483 161 486 159T490 152Q490 143 472 105T419 26T349 -14Q322 -14 285 7T222 54Q198 77 185 77Q167 77 151 64T127 37Q108 6 100 -2T78
-11Q68 -11 62 -3T55 15Q55 29 63 36T109 66Q138 83 158 99T227 164Z" />
<glyph unicode="{" glyph-name="braceleft" horiz-adv-x="479" d="M440 -238V-255Q356 -244 307 -188T257 -65Q257 -32 267 11Q279 47 279 86Q279 119 252 151T168 190V210Q226 218 252 250T279 315Q279 318 267 390Q257 432 257 466Q257 531 306 587T440 655V638Q330
611 330 522Q330 499 342 446Q352 409 352 370Q352 354 347 336T329 292T285 242T208 202V200Q279 175 315 128T352 31Q352 2 342 -45Q330 -98 330 -122Q330 -210 440 -238Z" />
<glyph unicode="|" glyph-name="bar" horiz-adv-x="500" d="M283 750H327V-250H283V750Z" />
<glyph unicode="}" glyph-name="braceright" horiz-adv-x="479" d="M142 -238Q252 -210 252 -122Q252 -98 240 -45Q230 2 230 31Q230 80 266 127T374 200V202Q329 218 298 242T253 292T235 336T230 370Q230 408 240 446Q252 499 252 522Q252 611 142 638V655Q227
644 276 588T325 466Q325 432 315 390Q303 318 303 315Q303 282 329 250T414 210V190Q357 183 330 151T303 86Q303 47 315 11Q325 -32 325 -65Q325 -132 276 -188T142 -255V-238Z" />
<glyph unicode="~" glyph-name="asciitilde" horiz-adv-x="667" d="M622 357H643Q642 295 608 260T525 224Q488 224 397 261Q311 296 285 305T236 314Q162 314 145 225H124Q126 262 138 289T163 329T195 349T222 357T237 358Q281 358 422 298Q496 266 531 266Q562
266 589 286T622 357Z" />
</font>
</defs>
</svg>
