<?xml version="1.0" standalone="no"?> <!DOCTYPE svg PUBLIC "-//W3C//DTD SVG 1.0//EN" "http://www.w3.org/TR/2001/REC-SVG-20010904/DTD/svg10.dtd" > <svg xmlns="http://www.w3.org/2000/svg" width="100%" height="100%">
<defs >
<font id="bellmtstd-regular" horiz-adv-x="480" ><font-face
    font-family="Bell MT Std"
    units-per-em="1000"
    panose-1="2 2 5 3 7 4 1 2 3 3"
    ascent="666"
    descent="-334"
    alphabetic="0" />
<missing-glyph horiz-adv-x="500" d="M0 0V700H500V0H0ZM250 395L420 650H80L250 395ZM280 350L450 95V605L280 350ZM80 50H420L250 305L80 50ZM50 605V95L220 350L50 605Z" />
<glyph unicode=" " glyph-name="space" horiz-adv-x="250" />
<glyph unicode="!" glyph-name="exclam" horiz-adv-x="219" d="M109 648Q158 648 158 580Q158 576 138 399T118 184Q118 172 118 168T117 159T114 155T108 154Q95 154 95 162Q95 257 74 460Q62 574 62 587Q62 614 75 631T109 648ZM90 86T110 86T144 72T158 38T144
4T110 -10T76 4T62 38T76 72Z" />
<glyph unicode="&quot;" glyph-name="quotedbl" horiz-adv-x="406" d="M280 369L254 514Q243 573 243 594Q243 654 290 654Q310 654 325 642T341 601Q341 584 328 513L301 369H280ZM102 369L76 514Q65 573 65 594Q65 654 112 654Q132 654 147 642T163 601Q163
584 150 513L123 369H102Z" />
<glyph unicode="#" glyph-name="numbersign" horiz-adv-x="667" d="M46 464H210L253 667H295L252 464H475L517 667H560L517 464H621V421H508L467 222H621V179H458L417 -23H373L416 179H192L151 -23H108L150 179H46V222H159L201 421H46V464ZM466 421H243L201 223H425L466
421Z" />
<glyph unicode="$" glyph-name="dollar" horiz-adv-x="500" d="M230 592H258V533Q313 529 350 513T401 477T419 445T424 425Q424 409 415 393T384 377Q371 377 361 386T350 414Q350 424 365 450Q370 457 370 463Q370 467 366 473T351 489T316 505T258 515V308Q357
281 402 246T448 144Q448 102 428 65T367 5Q329 -16 258 -22V-143H230V-22Q161 -20 115 7Q83 26 65 57T46 120Q46 139 58 154T87 169Q106 169 118 155T130 124Q130 101 107 86Q93 78 93 70Q93 66 98 57T117 34T160 10T230 -4V235Q197 245 180 251T136 271T97 298T73
336T62 388Q62 440 102 484T230 533V592ZM230 317V515Q214 514 199 511T158 498T117 468T101 418Q101 379 134 357T230 317ZM258 228V-4Q293 -2 320 8T361 30T383 59T394 86T397 106Q397 128 388 146T367 175T332 198T297 214T258 228Z" />
<glyph unicode="%" glyph-name="percent" horiz-adv-x="740" d="M556 316Q609 316 654 272T699 152Q699 73 654 30T555 -14Q500 -14 455 31T410 148Q410 217 451 266T556 316ZM560 298Q529 298 509 279T481 228T472 179T470 142Q470 70 495 37T552 4Q595 4 617
49T639 160Q639 233 613 265T560 298ZM186 652Q240 652 285 608T330 488Q330 409 284 366T185 322Q130 322 86 367T41 484Q41 553 82 602T186 652ZM191 634Q160 634 140 615T112 564T103 515T101 478Q101 406 126 373T184 340Q227 340 248 385T270 496Q270 569
245 601T191 634ZM557 650H589L189 -12H159L557 650Z" />
<glyph unicode="&amp;" glyph-name="ampersand" horiz-adv-x="688" d="M538 402L660 403Q668 401 668 394Q668 385 650 385Q588 383 544 289Q514 223 504 204T473 159Q498 112 511 91T544 53T589 36T640 54Q656 65 657 65Q660 65 663 62T667 56Q667 46 623 19T534
-9Q515 -9 501 -4T473 19T449 50T420 97Q390 69 368 51T299 12T209 -9Q144 -9 95 32T46 140Q46 171 58 200T85 249T128 292T171 325T215 354Q172 398 150 433T127 508Q127 565 167 599T257 633Q300 633 337 605T374 528Q374 466 287 391Q336 350 373 307T426 239T461
180Q524 274 524 332Q524 359 508 372T466 386Q443 386 443 395Q443 405 453 405Q460 405 496 404T538 402ZM270 407Q333 460 333 521Q333 557 309 583T251 609T201 586T183 535Q183 480 270 407ZM231 339Q172 299 148 263T124 180Q124 119 163 78T254 37Q326 37
409 117Q369 190 337 229T231 339Z" />
<glyph unicode="&apos;" glyph-name="quotesingle" horiz-adv-x="177" d="M77 369L51 514Q40 573 40 594Q40 654 87 654Q107 654 122 642T138 601Q138 584 125 513L98 369H77Z" />
<glyph unicode="(" glyph-name="parenleft" horiz-adv-x="302" d="M49 203Q49 224 51 249T63 329T100 452T168 583Q218 666 238 666Q261 666 261 657Q261 655 242 628L223 602Q97 393 97 188Q97 51 148 -70T247 -242Q257 -252 257 -256Q257 -265 227 -265Q216
-265 197 -242Q143 -178 96 -61T49 203Z" />
<glyph unicode=")" glyph-name="parenright" horiz-adv-x="302" d="M253 198Q253 178 251 153T239 72T202 -51T134 -182Q80 -265 64 -265Q41 -265 41 -256Q41 -254 60 -228L79 -201Q205 -14 205 213Q205 350 154 471T55 643Q45 653 45 657Q45 666 75 666Q86 666
105 643Q159 579 206 462T253 198Z" />
<glyph unicode="*" glyph-name="asterisk" horiz-adv-x="500" d="M244 669Q273 669 273 628Q273 615 266 554T259 488Q259 482 263 482Q266 482 277 499Q350 611 384 611Q391 611 399 605T407 589Q407 576 396 565T323 511Q303 496 282 482Q276 479 276 474T283
469Q284 469 299 472T318 476Q400 489 415 489Q459 489 459 460Q459 450 452 443T430 436T350 446T282 457Q276 457 276 453Q276 452 289 442T305 431Q380 377 395 361Q410 344 410 331Q410 322 402 316T384 309Q367 309 349 329T277 425Q269 437 267 437Q264 437
264 432Q264 429 270 363T277 284Q277 251 252 251Q224 251 224 287Q224 317 243 409L248 432Q248 437 243 437Q242 437 218 404T189 365Q141 302 123 302Q114 302 107 309T100 326Q100 338 107 346T148 383Q176 407 223 439Q228 444 228 445Q228 448 224 448Q223
448 219 447T213 446Q96 426 79 426Q63 426 52 433T41 454Q41 464 49 472T77 481Q95 481 213 462Q215 462 219 461T224 460Q229 460 229 464Q229 465 225 468T215 476L210 480Q121 544 104 558T87 587Q87 597 95 604T112 611Q126 611 146 590T209 516Q238 480 242
480Q245 480 245 485Q245 488 241 506T236 526Q219 606 219 629Q219 651 227 660T244 669Z" />
<glyph unicode="+" glyph-name="plus" horiz-adv-x="667" d="M71 311H312V552H355V311H596V268H355V27H312V268H71V311Z" />
<glyph unicode="," glyph-name="comma" horiz-adv-x="219" d="M101 90Q127 90 148 68T170 16Q170 -21 150 -60T100 -124Q60 -156 47 -156Q39 -156 39 -146Q39 -143 51 -134L63 -126Q117 -82 117 -26Q117 -8 98 -6Q75 -4 63 7T49 26T47 40Q47 48 50 58T67 79T101 90Z" />
<glyph unicode="-" glyph-name="hyphen" horiz-adv-x="344" d="M42 237H312Q323 237 325 234T327 217V190Q327 177 324 175T305 172H42Q24 172 21 174T17 190V217Q17 232 20 234T42 237Z" />
<glyph unicode="." glyph-name="period" horiz-adv-x="219" d="M90 90T110 90T144 76T158 42T144 8T110 -6Q89 -6 76 8T62 42T76 76Z" />
<glyph unicode="/" glyph-name="slash" horiz-adv-x="500" d="M401 660H443L99 -18H57L401 660Z" />
<glyph unicode="0" glyph-name="zero" horiz-adv-x="500" d="M254 531Q344 531 408 450T472 264Q472 198 445 136T365 33T246 -9Q179 -9 128 33T52 135T28 258Q28 364 93 447T254 531ZM253 511Q183 511 147 437T110 258Q110 148 149 80T250 11Q390 11 390 270Q390
288 389 304T385 351T372 407T349 457T310 497T253 511Z" />
<glyph unicode="1" glyph-name="one" horiz-adv-x="500" d="M308 518V455Q308 374 307 310T305 232Q305 99 308 71T325 33Q338 22 371 19Q382 19 382 11Q382 -1 367 -1Q362 -1 335 0T303 1Q292 1 234 0T166 -1Q150 -1 150 8T167 19Q217 22 229 42T241 130Q241
374 236 420Q234 438 226 449T205 465T182 471T157 472Q142 472 142 484Q142 492 159 492Q193 492 230 502T287 525Q299 532 301 532Q308 532 308 518Z" />
<glyph unicode="2" glyph-name="two" horiz-adv-x="500" d="M129 1L59 0Q47 0 47 9Q47 13 71 32Q228 154 280 221Q353 314 353 401Q353 411 351 422T343 455T317 492T268 506Q200 506 153 446T105 316Q105 292 116 274T152 255Q207 255 235 331Q239 343 246 343Q255
343 255 334Q255 309 220 269T140 228Q106 228 80 255T53 318Q53 387 132 458T294 530Q348 530 390 498T433 400Q433 340 399 292T304 194Q227 130 144 69V67H292Q357 67 377 75T421 115Q433 133 438 133Q446 133 446 125Q446 122 421 67T391 1Q367 -1 343 -1Q326
-1 235 0T129 1Z" />
<glyph unicode="3" glyph-name="three" horiz-adv-x="500" d="M297 297L299 295Q335 295 362 284T402 258T424 224T433 195T435 177Q435 109 368 50T209 -10Q139 -10 95 22T51 91Q51 110 64 126T100 142Q114 142 124 132T134 108Q134 105 130 95T125 83Q122 75
122 66Q122 39 147 24T205 9Q249 9 282 37T330 104T351 168T358 203Q358 245 335 262T290 280Q275 280 264 273T212 235Q203 226 197 226Q189 226 189 236Q189 240 203 251Q294 320 321 351T348 429Q348 463 328 486T272 510Q224 510 188 473T152 388Q152 338 191
338Q216 338 239 374Q248 389 253 389Q262 389 262 380Q262 368 235 337T169 305Q134 305 117 326T99 374Q99 432 155 481T293 530Q361 530 390 500T420 435Q420 386 370 347Q367 345 335 323T297 297Z" />
<glyph unicode="4" glyph-name="four" horiz-adv-x="500" d="M387 0H202Q175 0 175 10Q175 17 180 18T211 20Q250 25 257 54Q263 78 267 201Q158 201 27 197Q26 206 27 215Q154 366 218 436Q285 508 311 533H333Q335 499 335 419V223Q358 223 368 224T397 228T424
239T441 259T451 293Q452 307 452 311T455 317T461 320Q470 320 470 308Q470 302 469 269T467 231Q467 222 468 177T469 125Q469 115 459 115Q454 115 453 118T446 142Q435 186 414 195T335 201Q331 80 338 51Q346 20 396 20Q414 20 414 10T387 0ZM267 223Q271
295 271 461Q266 455 150 329Q105 279 59 221L84 222Q109 222 140 222T207 223T267 223Z" />
<glyph unicode="5" glyph-name="five" horiz-adv-x="500" d="M181 515L184 522Q228 515 261 511Q282 508 289 508Q355 508 404 573Q408 577 414 577Q421 577 421 571Q421 536 374 494T246 451Q229 451 196 454Q175 353 169 299Q224 344 283 344Q340 344 387 306T434
200Q434 116 362 54T204 -9Q146 -9 101 20T56 97Q56 117 67 128T87 140T100 142Q114 142 125 133T137 110Q137 106 134 87T130 64Q130 38 151 25T203 11Q277 11 317 71T357 217Q357 324 275 324Q229 324 193 291T153 222Q153 221 153 219Q150 202 142 202Q133 202
133 212Q133 214 156 362T181 515Z" />
<glyph unicode="6" glyph-name="six" horiz-adv-x="500" d="M127 282Q194 334 271 334T396 287T445 174Q445 106 390 49T244 -9T101 55T48 229Q48 310 78 378T171 490T321 535Q382 535 418 509T454 447Q454 427 442 413T411 399Q397 399 386 409T374 439Q374 479
372 484Q367 500 348 508T307 516Q293 516 278 513T238 496T193 459T155 390T127 282ZM120 168Q120 94 156 52T247 9Q289 9 317 36T356 97T366 165Q366 225 336 268T250 311Q230 311 209 305T167 283T133 238T120 168Z" />
<glyph unicode="7" glyph-name="seven" horiz-adv-x="500" d="M444 519L439 505Q319 295 309 145Q308 141 304 82T300 21Q293 -24 257 -24Q239 -24 229 -9T218 26Q218 74 300 261Q303 268 327 318T370 408T388 449Q388 456 378 456H196Q176 455 166 454T141 449T114
432T92 401Q84 387 77 387Q68 387 68 397T81 464T104 545Q108 554 115 554Q120 554 122 552T128 540Q137 520 197 520Q206 520 253 521T308 522Q354 522 444 519Z" />
<glyph unicode="8" glyph-name="eight" horiz-adv-x="500" d="M319 297Q342 286 356 277T392 250T426 207T438 151Q438 87 380 39T248 -9Q181 -9 126 29T71 124Q71 148 81 169T114 208T152 237T196 264Q175 273 162 280T130 303T101 340T91 389Q91 448 139 496T264
545Q325 545 373 513T422 426Q422 396 403 368T365 327T319 297ZM297 306Q321 319 334 328T363 363T378 421Q378 475 343 501T263 527Q216 527 179 501T142 426Q142 382 174 360T297 306ZM218 256Q119 196 119 121Q119 80 152 45T249 10Q310 10 343 44T377 123Q377
183 328 211Q320 215 273 234T218 256Z" />
<glyph unicode="9" glyph-name="nine" horiz-adv-x="500" d="M374 243Q296 190 230 190Q161 190 109 235T56 353T115 480T252 535Q287 535 320 522T384 483T434 409T453 298Q453 215 423 144T328 25T176 -23Q114 -23 79 3T43 67Q43 90 56 103T88 116Q103 116 114
108T125 79Q125 76 124 61T122 44Q122 -2 194 -2Q272 -2 322 77Q357 133 374 243ZM133 366Q133 296 166 255T249 214Q260 214 273 216T307 227T342 250T369 293T380 359Q380 423 347 469T253 515Q198 515 166 470T133 366Z" />
<glyph unicode=":" glyph-name="colon" horiz-adv-x="219" d="M91 90T111 90T145 76T159 42T145 8T111 -6Q90 -6 77 8T63 42T77 76ZM91 352T111 352T145 338T159 304T145 270T111 256Q90 256 77 270T63 304T77 338Z" />
<glyph unicode=";" glyph-name="semicolon" horiz-adv-x="219" d="M101 90Q127 90 148 68T170 16Q170 -21 150 -60T100 -124Q60 -156 47 -156Q39 -156 39 -146Q39 -143 51 -134L63 -126Q117 -82 117 -26Q117 -8 98 -6Q75 -4 63 7T49 26T47 40Q47 48 50 58T67 79T101
90ZM90 352T110 352T144 338T158 304T144 270T110 256T76 270T62 304T76 338Z" />
<glyph unicode="&lt;" glyph-name="less" horiz-adv-x="667" d="M595 49L72 272V310L595 531V484L129 291L595 97V49Z" />
<glyph unicode="=" glyph-name="equal" horiz-adv-x="667" d="M71 427H596V384H71V427ZM71 200H596V157H71V200Z" />
<glyph unicode="&gt;" glyph-name="greater" horiz-adv-x="667" d="M72 531L595 309V270L72 49V96L538 290L72 484V531Z" />
<glyph unicode="?" glyph-name="question" horiz-adv-x="427" d="M92 366Q113 349 122 342T149 328T182 320Q229 320 261 373T294 489Q294 557 259 596T179 635Q134 635 134 605Q134 603 135 592T136 580Q136 559 124 547T95 535T65 546T52 580Q52 608 75 625T124
648T175 653Q253 653 310 598T367 465Q367 392 320 342T208 292Q165 292 121 320Q113 208 113 174Q107 159 100 158Q93 158 91 160T89 171Q89 321 92 366ZM89 87T109 87T143 73T157 39T143 5T109 -9T75 5T61 39T75 73Z" />
<glyph unicode="@" glyph-name="at" horiz-adv-x="917" d="M688 468L631 273Q596 149 591 127T585 88Q585 76 593 63T622 50Q694 50 761 145T829 368Q829 498 741 583T512 669Q418 669 338 629T206 522T124 373T94 204Q94 30 201 -78T476 -186Q552 -186 621 -163T758
-76T868 84H896Q865 -13 797 -82T645 -184T473 -216Q291 -216 169 -94T47 217Q47 421 183 558T509 695Q595 695 663 667T773 591T836 484T858 360Q858 281 829 204T736 71T589 15Q514 15 514 83Q514 112 523 152L521 154Q410 15 331 15Q288 15 265 51T242 129Q242
202 285 283T392 418T511 471Q579 471 594 403H596L611 457L688 468ZM516 448Q472 448 425 389T348 259T319 144Q319 116 335 95T376 74Q444 74 524 195Q544 227 560 284T577 376Q577 407 561 427T516 448Z" />
<glyph unicode="A" glyph-name="A" horiz-adv-x="688" d="M321 654H344Q392 555 522 192Q551 112 571 74T608 26T653 12Q669 11 669 2Q669 -5 661 -5Q656 -5 635 -4T600 -2Q548 0 540 0Q528 0 468 -2Q454 -2 430 -3T399 -5Q388 -5 388 4Q388 11 421 14Q472 18
472 60Q472 71 443 165Q439 176 428 206T414 248Q357 249 187 246Q136 111 136 75Q136 49 158 32T211 13Q229 13 229 2Q229 -2 223 -5Q205 -5 175 -2Q135 0 129 0Q120 0 72 -2Q36 -5 16 -5Q3 -5 3 4T17 13Q45 17 67 39T96 78T115 124L212 388Q254 508 321 654ZM302
545Q253 444 196 276Q238 278 271 278Q280 278 337 277T405 276Q399 293 378 349T332 469T302 545Z" />
<glyph unicode="B" glyph-name="B" horiz-adv-x="615" d="M118 58Q126 81 129 106T132 154T131 208Q131 238 132 322T134 439Q134 579 112 605Q100 620 66 624Q52 627 52 635Q52 644 66 644Q73 644 111 643T155 642Q170 642 251 645T346 648Q360 648 375 647T414
641T460 626T500 600T531 560T543 501Q543 470 532 445T506 405T468 377T429 359T392 346V344Q483 319 528 280T573 174Q573 159 569 141T551 96T514 48T448 12T349 -4Q342 -4 300 -2Q260 0 254 0Q238 0 151 -1T49 -3T34 6Q34 11 40 13T77 21Q87 23 93 25T106 36T118
58ZM224 614Q221 540 221 353Q232 346 261 346Q347 346 405 387Q433 407 442 431T452 494Q452 558 412 593T306 628Q270 628 224 614ZM224 323Q214 296 214 131Q214 44 222 35Q238 18 324 18Q360 18 381 24T426 51Q476 95 476 173Q476 326 292 326Q250 326 224
323Z" />
<glyph unicode="C" glyph-name="C" horiz-adv-x="646" d="M599 625L610 455Q612 433 602 433Q594 433 585 455Q554 529 498 580T370 632Q274 632 215 544T156 331Q156 257 179 196T238 98T317 40T402 19Q442 19 478 35T539 75T578 118T601 153Q609 168 616 168Q627
168 627 156Q627 148 611 123T565 67T481 11T363 -13Q308 -13 254 8T153 68T77 171T48 315Q48 396 76 462T151 569T253 632T364 654Q445 654 543 598Q571 623 576 636Q579 642 588 642Q599 642 599 625Z" />
<glyph unicode="D" glyph-name="D" horiz-adv-x="760" d="M231 639L331 640Q424 641 495 618T607 561T674 479T708 392T717 312Q717 233 682 162T582 46Q505 -9 369 -9Q345 -9 288 -4Q243 0 209 0Q88 0 53 -3L25 -5Q13 -5 13 3T35 14Q81 20 98 33T123 93Q126 114
132 271T138 469Q138 586 113 609Q99 621 59 627Q51 629 51 637Q51 647 61 647Q80 647 88 645Q191 638 231 639ZM213 167Q213 139 213 125T217 90T229 57T252 35T290 18T347 13Q409 13 457 36T533 92T579 169T603 247T609 314Q609 468 505 560Q438 618 319 618Q275
618 258 616T236 611T231 597Q230 593 229 560T227 520Q213 346 213 167Z" />
<glyph unicode="E" glyph-name="E" horiz-adv-x="656" d="M162 0H42Q28 0 28 8Q28 18 43 18Q104 18 118 53Q127 75 128 137T131 287L133 380Q134 408 131 487T123 577Q117 594 101 602T54 619Q41 622 41 630Q41 639 58 639Q69 639 96 636Q105 636 120 635T139
633H556Q571 568 584 480Q580 476 578 476Q573 476 563 493Q548 519 532 539T501 571T469 592T438 604T406 610T373 612T338 612Q265 612 225 604Q219 592 219 558Q219 548 217 458T216 344Q218 344 238 343T267 342Q330 342 357 361T404 439Q408 450 414 450Q423
450 423 435L422 422Q420 410 419 396T418 378Q418 366 418 349T417 327Q417 278 418 251Q420 239 420 215Q420 200 411 200T402 212Q389 280 349 300T216 320Q215 296 215 229Q215 127 218 97T233 52Q259 17 351 17Q543 17 597 144Q601 161 611 161Q619 161 619
150Q619 134 584 -6Q500 -7 371 -4Q219 0 162 0Z" />
<glyph unicode="F" glyph-name="F" horiz-adv-x="625" d="M301 -5H289Q266 -2 229 0H181Q171 0 119 -2Q107 -2 86 -3T60 -5Q45 -5 45 4Q45 14 65 14Q89 14 100 20T120 44Q135 79 135 312Q135 390 135 436T129 518T120 570T103 596T80 607T45 611Q29 611 29 620T71
632Q162 639 498 639Q565 639 570 636Q577 633 579 619L599 498Q599 487 590 487Q586 487 579 496T562 520L553 534Q483 617 354 617Q326 617 281 613T230 601Q223 592 223 541Q223 516 222 443T221 349Q239 347 274 347Q394 347 402 447Q402 460 412 460Q424 460
424 446Q424 445 423 426T421 403Q421 386 420 345T419 264V226Q419 211 407 211Q401 211 400 215T395 241Q389 283 361 304T297 325T221 325Q220 81 224 62Q235 16 294 14Q316 12 316 4Q316 -5 301 -5Z" />
<glyph unicode="G" glyph-name="G" horiz-adv-x="771" d="M670 444Q669 434 661 434Q656 434 654 437T645 455Q613 532 548 582T403 632Q329 632 271 586T183 469T154 320Q154 195 227 105T414 14Q498 14 556 85Q562 92 564 96T567 114T569 155Q569 179 569 192T564
226T550 258T523 277T479 286Q466 286 461 286T453 289T450 295Q450 306 466 306Q609 306 673 307Q682 307 705 308T737 309Q748 309 748 299Q748 288 736 288Q708 285 692 278T669 258T661 236T659 207Q659 97 654 82Q648 68 578 37Q472 -10 387 -10Q300 -10 223
27T95 141T44 314Q44 393 75 459T158 566T270 631T394 654Q477 654 569 607Q595 594 606 594Q620 594 625 602Q636 619 643 619T652 612T657 571L670 444Z" />
<glyph unicode="H" glyph-name="H" horiz-adv-x="760" d="M538 337L542 450Q542 452 542 458T543 466Q543 549 528 583T465 618Q441 618 441 629Q441 638 455 638Q466 638 522 636Q535 636 560 635T592 633Q617 633 659 636Q687 638 718 638Q732 638 732 630T723
622Q646 622 637 570Q630 529 626 372T622 124Q622 104 622 94T627 66T640 41T666 24T708 12Q724 9 724 3Q724 -5 711 -5Q705 -5 678 -4T635 -2Q571 0 560 0Q556 0 537 -1T511 -3Q471 -5 462 -5Q445 -5 445 3T457 11Q480 12 492 15T515 30T531 66Q536 95 538 307Q469
310 453 310Q264 310 213 303Q209 223 209 146Q209 72 215 53T255 21Q261 18 281 13Q289 11 289 4Q289 -4 278 -4Q263 -4 255 -2Q203 0 152 0Q95 0 62 -3Q60 -3 51 -4T40 -5Q28 -5 28 3T44 13Q73 17 88 28T107 51T114 86Q126 175 126 408Q126 570 107 597Q94 616
57 620Q47 621 46 628Q45 634 52 636T70 638L110 636L170 633Q198 633 228 636Q247 638 280 638Q294 638 294 629Q294 621 281 620Q258 618 245 614T225 602T218 587T215 566Q211 499 213 337Q285 332 388 332Q433 332 538 337Z" />
<glyph unicode="I" glyph-name="I" horiz-adv-x="375" d="M281 -1Q267 -1 216 -1T131 0Q125 0 102 -1T76 -1Q65 -1 65 8Q65 19 79 19Q128 19 134 57Q140 92 140 236Q140 537 128 581Q118 617 71 624Q58 626 58 635T68 644Q75 644 109 643T149 642Q161 642 222
643T293 644Q318 644 318 634Q318 630 304 625Q272 621 254 610T232 570Q224 519 224 340Q224 131 233 75Q237 53 249 40T274 24T305 17Q318 17 318 8T281 -1Z" />
<glyph unicode="J" glyph-name="J" horiz-adv-x="385" d="M277 369V191Q277 97 230 46Q203 17 169 3T105 -11Q69 -11 35 8T1 69Q1 91 13 104T45 117Q63 117 74 106T85 80Q85 70 76 53Q72 47 72 38Q72 26 82 18T107 10Q181 10 191 114Q193 134 193 326Q193 555
187 579Q177 616 123 621Q109 623 109 632Q109 642 122 642H177Q197 641 231 641Q244 641 288 643Q300 643 318 643T341 644Q359 644 363 641T368 631Q368 621 355 621Q308 621 293 593Q277 562 277 369Z" />
<glyph unicode="K" glyph-name="K" horiz-adv-x="677" d="M644 -5Q642 -5 631 -4T611 -2Q587 1 558 1Q547 1 491 -1Q470 28 463 52T440 169Q422 286 382 329Q362 351 328 351T256 328T213 294Q207 277 207 146Q207 114 207 100T211 66T223 40T245 25T282 15Q299
15 299 5Q299 -4 287 -4Q282 -4 238 -2T168 0Q148 0 123 -1T82 -3T64 -5Q43 -5 43 2Q43 10 57 12Q83 16 96 27T112 51T117 88Q117 91 120 131T125 216T128 288Q128 546 111 590Q106 602 97 608T80 617T50 621Q38 624 38 630Q38 641 60 641Q122 641 168 642Q258
644 273 644Q286 644 286 635Q286 629 279 628T235 621Q209 618 209 572Q209 500 214 325Q256 354 279 376T400 506Q408 512 432 543T456 590Q456 602 443 610T412 622Q393 626 393 634T408 642Q418 642 467 643T524 644Q626 644 634 641Q639 640 639 634Q639 626
625 623Q593 617 577 612T534 590T470 539Q386 464 321 382Q368 383 403 370T457 340T492 290T512 238T525 180Q554 36 640 13Q642 12 646 12Q659 9 659 3Q659 -5 644 -5Z" />
<glyph unicode="L" glyph-name="L" horiz-adv-x="615" d="M572 -5H543Q470 -5 405 -2Q321 0 222 0H153Q147 0 103 -2Q90 -3 74 -4T57 -5Q19 -5 19 4T34 13Q56 14 71 18T103 38T125 83Q134 137 134 434Q134 474 133 494T127 543T112 586T83 611T35 625Q25 625 25
635Q25 644 39 644Q45 644 81 642T124 640Q157 639 238 639L319 640Q332 640 332 631T318 622Q312 622 303 621T275 615T243 597T226 563Q218 518 218 276Q218 123 221 87Q226 21 304 21Q393 21 439 37T541 124Q569 158 583 191Q587 204 595 204Q604 204 604 192Q604
182 591 100T572 -5Z" />
<glyph unicode="M" glyph-name="M" horiz-adv-x="927" d="M718 510L719 546Q719 555 715 555Q710 555 705 547L609 360Q561 268 534 212T494 122T459 34Q451 16 449 12T441 8Q437 8 428 31Q410 78 296 308T171 547Q171 549 167 549T162 532Q162 531 159 354T156
139Q156 117 156 104T161 72T174 41T198 22T238 13Q263 13 263 2Q263 -5 251 -5Q243 -4 199 -2Q159 0 150 0Q84 0 24 -5Q18 -1 18 3Q18 13 35 13Q66 13 86 24T115 59T127 111T130 183L129 269Q129 280 132 379T136 487Q136 515 134 534T123 575T96 608T48 625Q29
627 29 635Q29 644 43 644Q51 644 133 642Q161 641 234 639Q283 532 355 392Q363 377 398 303T437 221Q455 186 471 159Q560 304 706 639H889Q911 639 911 630Q911 622 899 622Q851 618 833 603T809 551Q805 525 800 416T795 227Q795 111 797 75Q798 50 810 36T834
19T872 12Q884 10 884 2Q884 -5 869 -5Q852 -5 821 -2Q800 0 749 0Q714 0 629 -5Q613 -5 613 3T624 11Q663 16 678 28T699 74T705 192Q705 270 710 355T718 510Z" />
<glyph unicode="N" glyph-name="N" horiz-adv-x="750" d="M291 503L561 187Q578 170 587 158Q592 245 592 402Q592 498 588 530T563 583Q530 619 485 619Q466 619 466 627T476 637Q479 637 545 635T628 633L715 638Q731 638 731 629T718 620Q702 618 691 616T669
609T652 600T639 586T630 569T624 546T620 518T618 483T617 443T617 394Q617 141 612 15Q612 0 602 0Q597 0 583 14L363 271Q277 374 271 380Q199 458 188 477Q180 492 173 492Q167 492 167 473Q167 251 182 116Q190 44 244 25Q246 24 268 19T294 13Q300 12 300
4Q300 -5 282 -5Q207 0 168 0Q117 1 47 -4Q30 -4 30 4Q30 14 46 14Q75 14 94 21T123 39T139 71T145 110T146 159Q146 209 140 461Q138 535 80 594Q59 615 31 619Q14 619 14 627Q14 637 36 637Q161 637 179 636Q189 622 291 503Z" />
<glyph unicode="O" glyph-name="O" horiz-adv-x="729" d="M43 324Q43 373 65 428T126 533T231 617T374 650Q513 650 599 552T686 332Q686 272 662 212T595 103T488 22T351 -9Q226 -9 135 80T43 324ZM151 340Q151 284 167 210T220 87Q243 57 282 36T364 15Q420
15 464 47T531 128T566 229T578 327Q578 397 556 463T482 578T362 626Q308 626 266 596T199 521T163 428T151 340Z" />
<glyph unicode="P" glyph-name="P" horiz-adv-x="615" d="M243 0H63Q47 0 47 9Q47 17 65 20Q90 26 101 33T120 61Q130 87 130 230V240V501Q130 573 121 594T79 622T47 636Q47 645 67 645H346Q573 638 573 477Q573 306 295 306Q283 306 217 309Q218 299 215 252T212
200Q212 128 216 93T226 49T247 31Q260 23 291 18Q303 18 303 9Q303 1 292 1Q281 0 243 0ZM217 329Q244 326 298 326Q392 326 435 372Q453 391 465 425T477 493Q477 623 303 623Q255 623 217 614Q217 604 218 545T219 475Q219 465 218 403T217 329Z" />
<glyph unicode="Q" glyph-name="Q" horiz-adv-x="729" d="M418 -5L416 -3Q385 -6 381 -7Q355 -9 342 -9Q228 -9 136 80T44 310Q44 443 137 546T373 649Q446 649 507 620T606 544T664 442T685 332Q685 263 651 187T550 58Q463 -11 376 -45Q254 -92 242 -97L244
-99Q286 -96 314 -102T387 -135Q467 -183 492 -195T546 -207Q570 -207 589 -197T619 -177T647 -144Q657 -134 661 -134Q671 -134 671 -144Q671 -148 659 -165T626 -206T568 -248T488 -266Q450 -266 412 -250T306 -188Q250 -149 235 -141T200 -133Q147 -133 143
-192Q141 -231 134 -245T103 -259Q87 -259 78 -248T68 -224Q68 -191 112 -148T235 -75L418 -5ZM152 334Q152 284 162 233T194 131T261 47T364 15Q419 15 462 45T529 124T565 223T577 323Q577 393 556 459T484 575T362 625Q308 625 266 596T200 520T164 426T152
334Z" />
<glyph unicode="R" glyph-name="R" horiz-adv-x="677" d="M295 0H54Q33 0 33 9Q33 17 49 17Q95 17 114 41T133 150V401Q133 552 119 589Q113 605 97 613T47 626Q37 627 37 634Q37 642 57 642Q122 642 274 646Q293 646 319 647T348 648Q411 648 447 638T516 604Q574
560 574 491Q574 459 563 433T538 392T497 363T454 343T405 327Q478 296 502 263T537 167Q544 128 552 102T585 49T646 18Q666 16 669 15T673 8Q673 -1 658 -1Q579 -1 540 2T492 8T477 20Q465 36 460 56T442 153Q426 250 392 285T277 321Q265 321 220 316Q217 277
217 250Q217 88 227 58Q233 41 247 32T273 20T305 17Q317 17 317 9Q317 0 295 0ZM220 340Q336 342 378 360Q473 401 473 493Q473 504 472 516T461 549T437 587T392 615T320 627Q272 627 222 616Q216 418 216 402Q216 391 220 340Z" />
<glyph unicode="S" glyph-name="S" horiz-adv-x="521" d="M388 605Q402 618 406 632Q410 643 417 643Q422 643 426 639Q448 496 448 476Q448 467 437 467Q431 467 427 477Q403 537 353 581T238 626Q184 626 153 593T121 514Q121 485 131 465T168 430T217 405T287
381Q316 372 334 366T385 342T437 307T472 257T488 189Q488 111 424 51T267 -10Q183 -10 99 42Q84 28 76 3Q73 -6 65 -6Q56 -6 54 17Q47 78 40 203Q41 210 50 210Q57 210 62 199Q106 99 156 55T272 10Q343 10 378 52T414 142Q414 171 402 195T374 233T330 262T284
283T234 300Q167 321 135 339T82 381Q44 424 44 480Q44 547 103 596T247 646Q311 646 388 605Z" />
<glyph unicode="T" glyph-name="T" horiz-adv-x="719" d="M633 640H683Q685 630 691 568T698 499Q698 487 687 487Q680 487 675 493T645 539Q606 598 521 608Q499 611 408 612Q402 540 402 444Q402 154 415 83Q417 70 420 63T432 43T461 24T511 18Q532 18 532
10Q532 0 512 0H212Q201 0 201 9Q201 19 222 19Q251 19 276 34T309 79Q318 117 318 294Q318 459 306 612Q274 614 253 614Q225 614 205 612T155 601T98 570T53 513Q51 511 47 498T41 483Q38 480 32 480Q28 480 22 484Q24 518 41 640H121Q274 633 325 633Q529 633
573 636Q624 640 633 640Z" />
<glyph unicode="U" glyph-name="U" horiz-adv-x="760" d="M51 639H296Q317 639 317 631Q317 628 316 627T309 623T301 621T285 618Q239 611 228 559T216 376Q216 260 220 208T237 123Q275 30 413 30Q579 30 602 164Q615 242 615 439Q615 481 613 508T602 563T574
605T524 619Q505 619 505 629T529 639H725Q738 639 738 629Q738 623 727 621Q690 616 675 600T652 538T645 393Q642 166 615 105Q593 56 532 24T374 -9Q344 -9 312 -5T232 18T160 72Q141 98 134 131T127 224Q127 235 128 292T129 359Q129 459 125 512T116 578T101
600Q87 615 42 621Q31 621 31 629Q31 639 51 639Z" />
<glyph unicode="V" glyph-name="V" horiz-adv-x="677" d="M355 -10H326Q307 52 226 264T114 542Q97 579 82 594T36 614Q18 617 15 618T11 624Q11 630 16 631T40 633H279Q294 633 298 632T303 625Q303 614 288 614Q223 614 223 559Q223 516 288 335T372 114Q384
146 438 297T497 460Q521 523 521 558Q521 610 458 615Q445 616 445 624Q445 631 449 632T477 633H640Q662 633 666 632T671 625T667 617T646 612Q602 605 572 552T492 356Q451 239 370 32L355 -10Z" />
<glyph unicode="W" glyph-name="W" horiz-adv-x="1031" d="M367 -10H352Q344 7 286 145T173 405T96 558Q59 610 22 614Q7 617 7 624T12 632T44 633H257Q286 633 286 624Q286 616 259 613Q209 607 209 565Q209 544 247 454Q374 152 386 126Q466 340 510 491Q479
568 468 585T435 609Q434 609 416 612T395 618Q394 619 394 623Q394 630 399 631T429 633H638Q656 633 662 632T668 622Q668 618 662 616T629 609Q612 606 601 593T589 560Q589 523 642 383Q700 231 744 132L866 471Q886 526 886 554Q886 613 824 614Q810 614 810
624Q810 630 815 631T839 633H958Q1006 633 1016 632T1027 623Q1027 617 1016 615Q996 614 979 605T951 584T928 551T911 515T894 473Q882 442 809 235T719 -10H706Q679 62 640 159L524 448L424 157L367 -10Z" />
<glyph unicode="X" glyph-name="X" horiz-adv-x="740" d="M457 633H661Q682 633 686 632T691 625Q691 618 687 617T664 615Q609 613 550 548Q528 524 479 459T406 355Q421 331 491 232T590 98Q628 54 656 35T714 14Q732 11 732 3T713 -5Q690 -5 648 -2Q594 0 585
0Q574 0 512 -2Q467 -5 441 -5Q418 -5 418 3Q418 13 430 13Q493 13 493 54Q493 89 349 281Q316 243 262 163T208 61Q208 44 232 31T292 14Q310 14 310 4Q310 -5 293 -5Q289 -5 268 -4T233 -1Q208 0 175 0Q128 0 73 -3Q71 -3 61 -4T48 -5Q34 -5 34 5T49 15Q116 15
159 65Q180 90 243 178T329 304L276 382Q222 459 211 473Q180 514 168 529T133 568T91 601T50 613Q29 615 25 616T21 624Q21 633 45 633H302Q326 633 328 624Q328 618 322 617T291 613Q275 612 263 603T251 582Q251 565 301 491T386 377Q441 446 482 510Q507 548
507 569Q507 588 490 600T447 614Q427 616 427 625Q427 631 431 632T457 633Z" />
<glyph unicode="Y" glyph-name="Y" horiz-adv-x="708" d="M487 633H671Q697 633 697 623Q697 615 685 615Q638 615 607 587T496 450Q435 368 423 351T407 321Q400 296 400 214Q400 78 408 54Q414 38 429 29T462 17Q486 15 492 13T498 5Q498 -5 481 -5Q476 -5 451
-4T408 -1Q378 0 337 0Q334 0 316 -1T288 -3Q248 -5 240 -5Q222 -5 222 5Q222 13 235 13Q277 15 295 45T314 147Q314 169 311 216T301 274Q276 319 241 376T154 507T75 600Q60 611 27 616Q16 616 16 624Q16 630 22 631T49 633H276Q293 633 293 624Q293 617 269
614Q219 608 219 578Q219 557 250 514L378 334Q414 373 503 502Q537 553 537 571Q537 595 515 605T476 615Q459 615 459 624T487 633Z" />
<glyph unicode="Z" glyph-name="Z" horiz-adv-x="635" d="M507 0H74Q49 -2 49 7Q49 25 300 391Q315 413 359 476T422 567Q437 589 448 614Q370 618 313 618Q259 618 226 613T166 590T124 552T77 487Q73 479 67 479Q58 479 58 488Q58 498 96 612Q97 613 101 624T108
641T114 647Q147 647 187 642Q229 640 371 640Q483 640 548 645Q552 647 565 647Q570 647 570 641T558 616L344 302Q220 122 165 24Q257 22 286 22Q322 22 345 23T408 31T480 56T536 103L590 169Q594 171 597 171Q605 171 605 162V160L557 13L553 2Q536 0 507 0Z"
/>
<glyph unicode="[" glyph-name="bracketleft" horiz-adv-x="510" d="M140 587Q141 516 141 288Q141 252 139 123T137 -61Q137 -160 140 -199Q220 -169 267 -157T362 -144Q432 -144 461 -170T491 -224Q491 -238 486 -252T471 -266T462 -259Q462 -258 465 -250T468
-241Q468 -228 458 -222T436 -214T398 -213Q311 -213 217 -225Q208 -226 190 -228T159 -232T137 -234Q115 -234 115 -224Q111 -48 111 251Q111 560 121 611Q123 619 133 619Q137 619 156 618T178 616Q269 609 345 609Q424 609 446 616T468 640Q468 642 466 649T463
657Q463 665 472 665Q480 665 485 654T491 630Q491 599 459 570T372 541Q303 541 140 587Z" />
<glyph unicode="\" glyph-name="backslash" horiz-adv-x="500" d="M99 660L443 -18H401L57 660H99Z" />
<glyph unicode="]" glyph-name="bracketright" horiz-adv-x="510" d="M369 -187Q368 -116 368 112Q368 148 370 277T372 461Q372 560 369 599Q289 569 242 557T147 544Q77 544 48 570T18 624Q18 638 23 652T38 666T47 659Q47 658 44 650T41 641Q41 628 51 622T73
614T111 613Q198 613 292 625Q301 626 319 628T350 632T372 634Q394 634 394 624Q394 576 396 375T398 149Q398 -160 388 -211Q386 -219 376 -219Q372 -219 353 -218T331 -216Q240 -209 164 -209Q85 -209 63 -216T41 -240Q41 -242 43 -249T46 -257Q46 -265 37 -265Q29
-265 24 -254T18 -230Q18 -199 50 -170T137 -141Q206 -141 369 -187Z" />
<glyph unicode="^" glyph-name="asciicircum" horiz-adv-x="469" d="M243 633L451 283H406L235 569L64 283H18L229 633H243Z" />
<glyph unicode="_" glyph-name="underscore" horiz-adv-x="500" d="M506 -125H-6V-75H506V-125Z" />
<glyph unicode="`" glyph-name="grave" horiz-adv-x="333" d="M213 461L97 549Q49 585 49 610Q49 621 57 631T81 641Q94 641 106 633T125 616T146 588L222 482Q236 461 236 458Q236 452 229 452T213 461Z" />
<glyph unicode="a" glyph-name="a" horiz-adv-x="438" d="M285 62H283Q235 -7 153 -7Q99 -7 73 21T47 89Q47 175 144 208Q240 240 264 255T288 307Q288 398 210 398Q190 398 177 393T156 376T146 356T139 330Q138 323 136 315T123 296T100 285Q96 285 89 287T73
300T64 328Q64 361 101 389T216 418Q297 418 336 382Q348 371 352 352T356 287Q356 276 355 220T353 155Q353 74 363 47T395 20Q397 20 406 21T417 22Q428 22 428 14Q428 -4 332 -4Q300 -4 293 10T285 62ZM284 253Q270 237 257 228T194 194Q184 189 174 182T151
163T129 134T121 98Q121 67 139 46T186 24Q219 24 245 46Q287 81 287 165Q287 223 284 253Z" />
<glyph unicode="b" glyph-name="b" horiz-adv-x="500" d="M150 642L149 608L148 580Q148 552 148 517T147 438T146 364Q204 419 271 419Q349 419 403 359T458 215Q458 166 439 117T373 30T262 -9Q210 -9 159 13Q157 14 136 28T110 42Q99 42 94 29Q89 10 87 6T79
1Q70 1 70 14Q70 50 73 237T77 455Q77 599 74 611Q71 621 65 627T53 635T35 642Q24 646 24 652Q24 660 39 660Q118 660 143 655Q150 653 150 642ZM139 151Q139 110 144 89T167 47Q198 12 252 12Q313 12 345 69T377 198Q377 214 376 231T368 279T348 334T311 376T250
394Q216 394 193 376T160 335Q139 282 139 151Z" />
<glyph unicode="c" glyph-name="c" horiz-adv-x="417" d="M33 197Q33 284 89 352T230 420Q245 420 268 416T317 402T362 373T381 329Q381 313 372 302T350 291Q322 291 308 335Q286 402 229 402Q191 402 166 380T131 321T120 266T117 227Q117 138 156 79T254 19Q293
19 327 49T367 119Q369 133 378 133T387 125Q387 79 344 36T225 -7Q140 -7 87 55T33 197Z" />
<glyph unicode="d" glyph-name="d" horiz-adv-x="510" d="M420 666V515V386Q420 361 418 229T416 76Q416 24 463 17Q479 12 479 6T474 -1T443 -2Q373 -2 348 -1Q347 42 348 87L346 89Q332 62 319 45T278 9T214 -9Q154 -9 95 46T36 194Q36 282 91 349T229 417Q310
417 347 347H349Q351 403 351 455Q351 499 351 518T351 563T349 599T345 621T338 637T329 643T315 647Q298 649 294 651T289 658Q289 666 312 666H420ZM350 231Q350 291 333 331Q322 358 298 378T237 398Q120 398 120 203Q120 153 130 117T154 64T186 36T214 25T231
23Q279 23 313 70Q350 121 350 231Z" />
<glyph unicode="e" glyph-name="e" horiz-adv-x="427" d="M116 228Q114 211 114 188Q114 120 154 72T256 24Q314 24 364 70Q379 84 383 84Q391 84 391 71Q370 34 326 12T229 -10Q147 -10 91 47T34 196Q34 294 96 357T229 420Q294 420 347 370T401 252Q401 238
395 235T362 232Q342 232 238 230T116 228ZM116 253Q224 250 238 250Q267 250 283 252T311 266T324 300Q324 341 296 371T231 402Q223 402 215 401T190 391T160 368T135 324T116 253Z" />
<glyph unicode="f" glyph-name="f" horiz-adv-x="281" d="M229 -5L212 -3Q191 0 131 0Q127 0 107 -1T79 -3Q75 -3 55 -4L35 -5Q24 -5 24 3Q24 8 28 10T50 16Q74 22 81 33T89 83Q97 264 95 369Q54 369 33 372Q19 374 19 382Q19 402 33 406T95 412Q96 428 95 449T98
494T107 543T125 589T157 628T204 656T272 666Q285 666 298 665T334 657T372 634T387 591Q387 577 380 569T366 559T355 557Q342 557 334 566T312 605Q290 647 249 646Q231 645 222 644T201 632T179 601Q157 550 157 467Q157 442 159 412Q182 413 222 411Q259 409
259 397L258 391Q256 385 252 379T241 371Q230 366 159 369Q157 337 157 154Q157 117 157 101T161 65T172 36T192 21T226 11Q240 10 240 2Q240 -5 229 -5Z" />
<glyph unicode="g" glyph-name="g" horiz-adv-x="542" d="M389 350Q410 312 410 273Q410 212 370 167T249 115Q205 112 186 108T148 90Q132 76 132 60Q132 35 161 28T252 18Q358 15 390 10T448 -14Q487 -45 487 -99Q487 -149 462 -184T394 -235T310 -259T223 -266Q38
-266 38 -169Q38 -128 79 -97T182 -46V-44Q156 -40 141 -36T108 -24T80 -3T71 29Q71 47 79 62T98 86T125 103T152 115T176 123V125Q118 142 95 178T72 253Q72 321 123 370T251 419Q324 419 376 367Q403 397 423 410T470 424Q502 424 518 406T534 368Q534 354 524
346T501 337Q478 337 465 359Q458 375 454 379T441 384Q421 384 389 350ZM149 268Q149 212 174 174T248 135Q279 135 306 165T333 263Q333 327 308 364T243 401Q216 401 196 388T167 352T153 309T149 268ZM279 -46Q216 -46 158 -75T100 -156Q100 -183 115 -202T154
-230T200 -242T246 -246Q339 -246 385 -208T432 -124Q432 -98 413 -79Q398 -61 356 -54T279 -46Z" />
<glyph unicode="h" glyph-name="h" horiz-adv-x="521" d="M464 0H333Q312 0 312 8Q312 15 323 17Q358 22 364 44Q369 63 369 170Q369 206 369 225T366 275T357 324T341 360T315 387T275 395Q240 395 211 371T172 316Q157 269 157 117Q157 35 172 25Q183 17 200
14Q212 12 212 5Q212 -3 200 -3Q198 -3 181 -3T151 -2T121 -2T101 -1Q84 -1 71 -2Q64 -2 54 -2L44 -3Q32 -3 32 5Q32 10 51 15Q69 19 75 27T84 55Q96 131 96 437Q96 542 86 591T38 649Q24 652 24 658Q24 663 33 663Q89 663 162 667Q162 646 162 505T162 347Q221
419 302 419Q338 419 364 408T403 380T424 339T433 294T435 248Q435 238 434 186T433 124Q433 48 436 40Q440 28 452 22T473 15Q486 15 486 9T482 2T464 0Z" />
<glyph unicode="i" glyph-name="i" horiz-adv-x="260" d="M165 420L164 310Q163 265 164 180T165 69Q165 56 166 49T171 33T185 21T211 16Q238 14 238 5Q238 -3 227 -3Q219 -3 180 0T134 3Q126 3 85 1T38 -1Q26 -1 26 8Q26 14 32 16T69 22Q86 24 91 36T96 79Q96
95 97 182T99 285Q99 350 92 367T56 391L30 396Q27 398 27 402Q27 411 42 411Q106 416 165 420ZM110 658Q131 658 144 644T157 615Q157 598 147 584T113 569Q97 569 82 580T67 613Q67 633 79 645T110 658Z" />
<glyph unicode="j" glyph-name="j" horiz-adv-x="271" d="M114 271Q114 356 108 374T69 392Q48 392 43 393T37 402Q37 406 40 408T49 410T65 412Q126 417 183 420Q178 -49 177 -66Q172 -117 157 -155T124 -213T83 -243T46 -257T18 -260Q-27 -260 -50 -237T-74
-183Q-74 -160 -61 -148T-34 -135T-9 -145T3 -172Q3 -176 -2 -194T-8 -215Q-8 -240 27 -240Q33 -240 41 -239T66 -230T95 -204T111 -154Q114 -129 114 271ZM136 682Q152 682 165 670T179 639T165 610T136 598Q120 598 108 609T95 640Q95 655 105 668T136 682Z"
/>
<glyph unicode="k" glyph-name="k" horiz-adv-x="500" d="M309 409L432 410Q446 410 446 401Q446 393 435 392Q405 386 386 377T341 344Q335 338 307 309T273 275Q309 255 333 216T379 87Q384 63 390 52T414 30T466 18Q481 18 481 9T456 0H338Q322 14 316 28T304
82Q296 140 276 173T211 223Q206 219 184 204T154 182Q150 64 170 38Q183 18 205 17Q220 17 220 8Q220 2 216 1T189 0H47Q22 0 22 8T33 18Q66 23 77 41T88 115Q88 118 81 524Q80 551 79 563T73 594T56 622T23 634Q11 635 11 643Q11 649 29 652Q32 652 33 652Q149
665 151 665V582Q151 534 152 442T154 301V205Q234 260 275 304T316 368T286 390Q261 391 261 400Q261 407 269 408Q275 409 309 409Z" />
<glyph unicode="l" glyph-name="l" horiz-adv-x="281" d="M166 669H174Q176 629 176 546Q176 84 179 60Q184 17 241 12Q257 9 257 2Q257 -6 244 -6Q226 -6 202 -2Q178 0 115 0Q82 0 66 -1Q54 -4 38 -4Q23 -4 23 5Q23 10 26 11T47 14Q65 15 77 23T94 39T103 64T106
91T107 123Q107 529 103 560Q95 618 35 628Q16 631 16 638Q16 644 20 645T46 649Q134 658 166 669Z" />
<glyph unicode="m" glyph-name="m" horiz-adv-x="781" d="M732 0H582Q560 0 560 9T573 18Q596 18 608 24T623 39T629 66Q634 107 634 205Q634 237 634 248T632 288T625 331T610 362T585 387T548 395Q525 395 505 384T475 362T449 329Q432 264 432 116Q432 56 440
37T481 17Q498 17 501 16T505 9Q505 0 485 0H321Q296 0 296 10Q296 18 321 19Q342 20 354 40Q368 65 368 220Q368 389 286 389Q250 389 221 363T182 309Q166 262 166 125Q166 57 173 38T212 18Q220 18 223 18T228 15T230 8Q230 0 211 0H59Q48 0 44 0T36 3T32 10T35
16T60 20Q70 20 78 29T89 53Q97 104 97 218Q97 335 93 355Q88 390 49 393Q31 395 27 396T23 403T25 409T34 412T56 414Q126 421 167 419Q173 400 172 339Q245 419 320 419Q351 419 378 405T415 381T439 353Q477 389 508 404T580 420Q652 420 685 376Q705 349 706
296T703 204Q701 91 702 59Q703 19 742 19Q759 19 759 10Q759 0 732 0Z" />
<glyph unicode="n" glyph-name="n" horiz-adv-x="531" d="M280 386Q250 386 221 362T177 302Q151 238 151 174Q151 153 150 130T149 96T150 73T154 50Q164 19 201 14Q212 13 212 4Q212 -2 202 -2T143 -1T86 0H34Q25 0 25 7Q25 13 30 15T61 23Q84 28 87 64Q92 124
92 263Q92 297 92 312T88 348T76 379T55 394Q28 403 28 408Q28 417 43 417Q114 417 149 418Q159 390 162 321H164Q224 417 307 417Q343 417 369 406T408 379T428 338T436 294T438 248Q438 238 437 186T436 124Q436 49 439 40Q441 33 453 26T478 17Q492 15 492 9Q492
0 467 0Q456 0 435 2T403 5T367 3T332 0Q311 0 311 8Q311 15 322 17Q362 23 367 44Q372 63 372 170Q372 192 372 213T371 256T367 297T358 332T342 361T316 379T280 386Z" />
<glyph unicode="o" glyph-name="o" horiz-adv-x="490" d="M34 204Q34 287 95 354T249 421Q333 421 394 363T456 216T392 61T241 -7Q157 -7 96 54T34 204ZM111 207Q111 126 149 70T247 13Q305 13 342 69T379 202Q379 248 365 292T318 368T241 401Q184 401 148 346T111
207Z" />
<glyph unicode="p" glyph-name="p" horiz-adv-x="500" d="M218 -237L216 -241L213 -244Q137 -240 119 -240Q110 -240 65 -241T13 -242Q4 -242 4 -233Q4 -228 8 -227T27 -223Q54 -220 64 -211T79 -171Q88 -86 88 104L87 221Q87 350 85 360Q80 395 36 398Q25 399
25 406Q25 415 40 415Q97 418 158 418Q160 396 160 379L158 339L160 337Q212 409 289 409Q363 409 416 348T470 201Q470 110 409 54T268 -2Q215 -2 158 30Q149 -30 149 -102Q149 -181 157 -196Q169 -218 203 -226Q215 -228 218 -237ZM154 200Q154 104 158 88Q166
53 194 36T261 18Q321 18 357 69T393 195Q393 272 358 325T266 379Q194 379 168 304Q154 264 154 200Z" />
<glyph unicode="q" glyph-name="q" horiz-adv-x="510" d="M468 -221H301Q281 -221 281 -213Q281 -204 295 -204Q325 -204 338 -190T351 -126Q351 -8 349 34Q290 0 225 0Q178 0 140 20T79 72T44 139T31 206Q31 282 88 351T229 420Q308 420 381 370Q385 376 391
388T401 408T410 415Q419 415 419 393Q419 378 418 302T417 214Q417 -118 424 -163Q431 -203 476 -203Q497 -203 497 -212T468 -221ZM247 18Q272 18 294 30T329 57Q351 84 351 159Q351 294 338 331Q313 402 244 402Q199 402 168 367T126 290T115 209Q115 188 119
163T135 101T176 42T247 18Z" />
<glyph unicode="r" glyph-name="r" horiz-adv-x="396" d="M204 0H48Q31 0 31 9Q31 16 61 18Q87 21 93 44T99 163Q99 226 99 256T96 316T91 356T80 375T63 386T37 389Q26 389 26 398T39 407Q48 408 74 409T130 412T163 414Q170 365 170 308H172Q232 418 310 418Q338
418 357 399T376 355Q376 309 337 309Q328 309 322 313T312 322T302 341Q289 367 264 367Q242 367 220 346T185 297Q170 261 170 144Q170 44 181 31Q189 21 218 18Q227 17 227 11Q227 0 204 0Z" />
<glyph unicode="s" glyph-name="s" horiz-adv-x="396" d="M348 129Q348 67 304 29T205 -9Q182 -9 166 -4T104 23Q100 25 94 25Q86 25 75 7Q70 1 64 1Q59 1 57 12Q53 68 53 138Q53 151 63 151Q67 151 73 138Q83 114 91 98T115 58T155 21T205 8Q234 8 261 27T289
84Q289 136 196 179Q162 194 147 201T112 221T84 243T70 269T64 305Q64 356 102 389T195 423Q226 423 264 408Q285 394 296 394Q300 394 311 407Q312 410 316 410Q324 410 326 392Q331 334 331 298Q331 283 323 283Q316 283 311 297Q306 314 288 346T260 386Q233
405 199 405Q166 405 143 389T120 343T142 298T239 247Q266 235 280 228T312 206T339 173T348 129Z" />
<glyph unicode="t" glyph-name="t" horiz-adv-x="344" d="M187 414H304Q319 414 323 408Q322 389 315 382Q291 382 187 374Q180 256 180 163Q180 141 180 129T185 95T196 63T217 43T253 34Q281 34 304 48Q324 60 325 60Q331 60 331 53Q331 41 297 16T211 -10Q183
-10 164 0T134 25T119 62T112 98T111 131Q111 201 120 374Q113 375 77 378T39 381Q34 384 34 387Q34 392 50 399Q158 448 169 541Q171 558 180 558T189 544Q189 540 188 518T187 491V414Z" />
<glyph unicode="u" glyph-name="u" horiz-adv-x="510" d="M323 410H421Q425 363 425 250Q425 235 424 189T422 109T425 62Q428 47 429 39T435 27T452 21Q474 18 474 10Q474 1 449 1H372Q352 1 352 13V90Q278 -6 192 -6Q104 -6 91 79Q82 142 82 344Q82 375 79 383T57
392Q38 393 38 402Q38 410 61 410H151Q152 397 154 259T161 95Q166 62 188 45T233 28Q258 28 290 49T338 104Q355 142 355 246Q355 292 356 324T348 374T309 393Q298 393 298 401Q298 407 302 408T323 410Z" />
<glyph unicode="v" glyph-name="v" horiz-adv-x="500" d="M350 412H474Q483 410 483 402Q483 398 480 397T461 393Q429 388 411 357T348 210Q330 164 298 90T251 -8H246Q237 6 158 177Q138 223 104 297T56 384Q49 391 28 395Q17 397 17 404Q17 414 31 414L187
413Q200 413 200 404Q200 399 196 397T175 392Q157 389 157 368Q157 346 207 234T276 86Q381 321 381 370Q381 388 359 394Q338 395 338 403Q338 412 350 412Z" />
<glyph unicode="w" glyph-name="w" horiz-adv-x="719" d="M368 289L365 286Q346 232 276 59Q267 35 258 14T243 -9H236Q171 143 159 175Q94 346 68 375Q59 385 35 388Q25 389 25 397Q25 407 41 407Q59 409 166 409Q202 409 210 408T218 401Q218 390 199 388Q163
382 163 364Q163 356 167 343T179 308T199 257T228 187T268 96Q352 289 352 326Q352 346 339 366T313 387Q295 389 292 390T288 397Q288 406 306 408T399 410Q453 410 458 408Q466 408 466 400Q466 396 462 394T442 386Q435 384 428 377T420 360Q420 354 433 319L524
102Q550 169 580 256T611 362Q611 371 605 380T585 390Q562 392 562 402Q562 409 573 409Q577 411 643 411Q680 411 689 408Q694 407 694 402Q694 395 662 382Q633 370 610 285Q587 202 501 -9H494Q474 28 431 134Q381 253 368 289Z" />
<glyph unicode="x" glyph-name="x" horiz-adv-x="531" d="M61 410H217Q242 410 242 401Q242 391 221 388Q199 385 194 383T189 374Q189 370 197 354Q201 348 276 243Q312 292 339 334Q350 350 350 363Q350 382 326 388Q310 390 306 392T302 399Q302 410 334 410H441Q463
410 463 401Q463 390 448 390Q410 390 393 370Q379 355 288 227Q390 93 407 72Q442 23 492 20Q507 20 507 11Q507 3 502 2T469 0H313Q283 0 283 10Q283 14 286 15T310 21Q336 28 336 42Q336 50 322 69Q303 98 293 112T269 143T242 177Q240 174 224 152T191 106T167
67Q159 51 159 43Q159 20 204 18Q221 18 221 9Q221 3 216 2T192 0H61Q34 0 34 10Q34 14 37 15T59 21Q95 29 115 44T164 102Q190 141 207 163T229 193Q223 200 188 247T124 332T85 376Q74 383 33 390Q22 392 22 401Q22 407 30 409Q39 410 61 410Z" />
<glyph unicode="y" glyph-name="y" horiz-adv-x="500" d="M43 415H54Q66 413 132 413Q150 413 228 416Q240 416 240 407Q240 402 235 400T208 391Q196 388 188 379T180 357Q180 341 200 291T291 72Q350 234 368 297Q375 332 375 352Q375 391 324 397Q310 397 310
406Q310 414 321 414Q326 414 356 414T391 413Q399 413 435 414T479 415Q491 415 491 407Q491 400 474 395Q454 391 438 372T413 331T384 257Q376 236 328 100T270 -61Q256 -95 249 -113T223 -165T188 -217T145 -250T91 -265Q54 -265 32 -244T9 -198Q9 -180 24
-166T54 -152Q72 -152 82 -160T94 -176T98 -198Q101 -218 122 -218Q160 -218 201 -143T243 -30Q243 -5 226 41T160 206Q117 309 95 351T53 396Q45 397 40 398T32 401T30 406Q30 415 43 415Z" />
<glyph unicode="z" glyph-name="z" horiz-adv-x="448" d="M294 415L357 413Q375 413 375 404Q375 398 368 386Q336 333 253 204T169 72Q162 61 141 19L246 18Q278 18 293 24T328 49Q331 52 360 90T395 129Q403 129 403 121Q403 112 375 0Q295 -1 135 1Q129 1 99
0T64 -1Q49 -1 49 9Q49 18 94 89T155 183Q193 237 269 370Q269 371 275 379T283 392Q257 394 231 394Q179 394 151 384T97 343Q95 341 86 328T69 304T57 294Q49 294 49 302L58 331Q61 342 68 370T80 411Q119 414 162 414Q278 414 294 415Z" />
<glyph unicode="{" glyph-name="braceleft" horiz-adv-x="479" d="M393 -238V-255Q309 -244 260 -188T210 -65Q210 -32 220 11Q232 47 232 86Q232 119 205 151T121 190V210Q179 218 205 250T232 315Q232 318 220 390Q210 432 210 466Q210 531 259 587T393 655V638Q283
611 283 522Q283 492 295 446Q305 396 305 370Q305 354 300 336T282 292T238 242T161 202V200Q232 175 268 128T305 31Q305 2 295 -45Q283 -98 283 -122Q283 -210 393 -238Z" />
<glyph unicode="|" glyph-name="bar" horiz-adv-x="500" d="M228 750H272V-250H228V750Z" />
<glyph unicode="}" glyph-name="braceright" horiz-adv-x="479" d="M86 -238Q196 -210 196 -122Q196 -98 184 -45Q174 2 174 31Q174 80 210 127T318 200V202Q273 218 242 242T197 292T179 336T174 370Q174 396 184 446Q196 492 196 522Q196 611 86 638V655Q171
644 220 588T269 466Q269 432 259 390Q247 318 247 315Q247 282 273 250T358 210V190Q301 183 274 151T247 86Q247 47 259 11Q269 -32 269 -65Q269 -132 220 -188T86 -255V-238Z" />
<glyph unicode="~" glyph-name="asciitilde" horiz-adv-x="667" d="M572 357H593Q592 295 558 260T475 224Q438 224 347 261Q261 296 235 305T186 314Q112 314 95 225H74Q76 262 88 289T113 329T145 349T172 357T187 358Q237 358 372 298Q448 266 481 266Q512
266 539 286T572 357Z" />
</font>
</defs>
</svg>
